<svg viewBox="0 0 1165 285" xmlns="http://www.w3.org/2000/svg" height="48"><title></title><path d="M270.84 86.14C248 26.19 177.82-.2 117.77 0 50.93.22 11.9 39.92 2.14 105.6-7 167.21 12.91 230.3 65.69 264.29c58.17 37.46 104.61 20.5 162.83-28.95 41.96-35.63 62.25-96.94 42.32-149.2zM169.13 217a2.462 2.462 0 0 1-2.44 2.44h-12.24c-1.34 0-2.445-1.1-2.45-2.44v-54.1a2.451 2.451 0 0 0-2.44-2.44H98a2.451 2.451 0 0 0-2.44 2.44v54.6c0 1.34-1.1 2.445-2.44 2.45H80.89a2.462 2.462 0 0 1-2.44-2.45V67.14c0-1.34 1.1-2.445 2.44-2.45h12.23a2.462 2.462 0 0 1 2.44 2.45v73.74c0 1.34 1.1 2.445 2.44 2.45h68.68a2.462 2.462 0 0 1 2.44 2.45zm28.64.47c0 1.34-1.1 2.445-2.44 2.45h-12.24a2.462 2.462 0 0 1-2.44-2.45v-84.22a2.462 2.462 0 0 0-2.44-2.44h-68.83a2.462 2.462 0 0 1-2.44-2.44v-12.24a2.451 2.451 0 0 1 2.44-2.44h68.82a2.462 2.462 0 0 0 2.44-2.45v-44.1c0-1.34 1.1-2.445 2.44-2.45h12.23a2.462 2.462 0 0 1 2.44 2.45z" fill="#FF377A"></path><path d="M93.12 219.95H80.89a2.462 2.462 0 0 1-2.44-2.45V67.14c0-1.34 1.1-2.445 2.44-2.45h12.23a2.462 2.462 0 0 1 2.44 2.45v73.74c0 1.34 1.1 2.445 2.44 2.45h68.68a2.462 2.462 0 0 1 2.44 2.45l.01 71.22a2.462 2.462 0 0 1-2.44 2.44h-12.24c-1.34 0-2.445-1.1-2.45-2.44v-54.1a2.452 2.452 0 0 0-2.44-2.44H98a2.452 2.452 0 0 0-2.44 2.44v54.6a2.462 2.462 0 0 1-2.44 2.45zm102.21-.03h-12.24a2.462 2.462 0 0 1-2.44-2.45v-84.22a2.462 2.462 0 0 0-2.44-2.44h-68.83a2.462 2.462 0 0 1-2.44-2.44v-12.24a2.451 2.451 0 0 1 2.44-2.44h68.82a2.462 2.462 0 0 0 2.44-2.45v-44.1c0-1.34 1.1-2.445 2.44-2.45h12.23a2.462 2.462 0 0 1 2.44 2.45l.02 150.33a2.462 2.462 0 0 1-2.44 2.45z" fill="#FFF"></path><path d="M484.8 64.84h-18.9a3.416 3.416 0 0 0-3.4 3.4V126a3.426 3.426 0 0 1-3.41 3.4h-70.32a3.416 3.416 0 0 1-3.4-3.4V68.24c0-1.865-1.535-3.4-3.4-3.4h-18.9a3.416 3.416 0 0 0-3.4 3.4v149.2c0 1.865 1.535 3.4 3.4 3.4H382c1.865 0 3.4-1.535 3.4-3.4v-60.22c0-1.865 1.535-3.4 3.4-3.4h70.32a3.426 3.426 0 0 1 3.41 3.4v60.22c0 1.865 1.535 3.4 3.4 3.4h18.9c1.865 0 3.4-1.535 3.4-3.4V68.24c0-1.865-1.535-3.4-3.4-3.4zM605.58 111h-17.37a3.416 3.416 0 0 0-3.4 3.4V165c0 23.51-11.21 36-26.81 36-14.06 0-22-10.76-22-28.34v-58.28c0-1.865-1.535-3.4-3.4-3.4h-17.34a3.416 3.416 0 0 0-3.4 3.4v62.29c0 28.13 15.6 46.36 40.87 46.36 14.06 0 25.71-6.15 32.08-17.13v11.54c0 1.865 1.535 3.4 3.4 3.4h17.37c1.865 0 3.4-1.535 3.4-3.4V114.38a3.416 3.416 0 0 0-3.4-3.38zm86.67-2.22c-15.82 0-29.22 8.13-35.38 16.92V59.45c0-1.865-1.535-3.4-3.4-3.4h-17.36a3.426 3.426 0 0 0-3.41 3.4v158a3.426 3.426 0 0 0 3.41 3.4h17.36c1.865 0 3.4-1.535 3.4-3.4v-11.33C663 214.9 676.43 223 692.25 223c30.1 0 53-25.7 53-57.12s-22.9-57.1-53-57.1zm-4.39 92.28c-19.56 0-33-15.38-33-35.15s13.4-35.16 33-35.16c19.33 0 32.73 15.38 32.73 35.16s-13.4 35.15-32.73 35.15zm132.7-92.28c-15.82 0-29.22 8.13-35.37 16.92V59.45c0-1.865-1.535-3.4-3.4-3.4h-17.37a3.416 3.416 0 0 0-3.4 3.4v158c0 1.865 1.535 3.4 3.4 3.4h17.37c1.865 0 3.4-1.535 3.4-3.4v-11.33c6.15 8.78 19.55 16.91 35.37 16.91 30.11 0 53-25.7 53-57.12s-22.89-57.13-53-57.13zm-4.39 92.28c-19.56 0-33-15.38-33-35.15s13.4-35.16 33-35.16c19.33 0 32.74 15.38 32.74 35.16s-13.41 35.15-32.74 35.15zM910.1 56h-17.37a3.416 3.416 0 0 0-3.4 3.4v158a3.426 3.426 0 0 0 3.4 3.4h17.37c1.865 0 3.4-1.535 3.4-3.4v-158c0-1.865-1.535-3.4-3.4-3.4zm129.74 107.27c0-35.38-24.17-54.49-52.95-54.49-33.44 0-57.41 24.89-57.35 57.24.06 33 28.5 58.65 61.47 56.91 19.63-1 34.62-9.51 44.08-22.59.41-.572.62-1.256.62-1.957 0-1.098-.53-2.13-1.43-2.763l-12.89-9.21c-1.5-1.074-3.62-.732-4.71.76-6 8.19-15.72 13.89-29.57 13.89-18.24 0-32.74-11.86-33.84-29.88h81.55c2.71 0 4.96-2.207 5-4.92.02-1.02.02-1.97.02-2.99zm-85.47-9.67c3.29-16.26 17.58-24.39 31.64-24.39s26.8 8.57 29.44 24.39zM1094.13 57h-6.68c-.66 0-1.2.542-1.2 1.2v20.41c0 .658-.54 1.2-1.2 1.2h-24.86c-.66 0-1.2-.542-1.2-1.2V58.18c0-.658-.54-1.2-1.2-1.2h-6.68c-.66 0-1.21.54-1.21 1.2v52.74c0 .66.55 1.2 1.21 1.2h6.68c.66 0 1.2-.542 1.2-1.2V89.63c0-.658.54-1.2 1.2-1.2H1085c.66 0 1.2.542 1.2 1.2v21.29c0 .658.54 1.2 1.2 1.2h6.68c.66 0 1.21-.54 1.21-1.2V58.18a1.214 1.214 0 0 0-1.16-1.18zm69.62 53l-9.86-8.61a28.48 28.48 0 0 0 5.52-16.859c0-15.64-12.87-28.51-28.51-28.51s-28.51 12.87-28.51 28.51 12.87 28.51 28.51 28.51a28.53 28.53 0 0 0 17.17-5.751l5.09 4.52c.22.192.51.298.8.3h9.01c.66 0 1.2-.542 1.2-1.2 0-.35-.15-.682-.42-.91zM1147 95.34l-8-7a1.2 1.2 0 0 0-1.7.12l-3.86 4.46c-.43.498-.38 1.262.11 1.7l7.65 6.67a18.84 18.84 0 0 1-10.54 3c-11-.11-19.56-9.58-19.11-20.59.24-10.428 8.89-18.874 19.32-18.86 10.87 0 19.26 8.78 19.26 19.73.02 3.817-1.06 7.56-3.13 10.77z" fill="#FF377A"></path></svg>
