<svg width="110" height="38" viewBox="0 0 110 38" fill="none" xmlns="http://www.w3.org/2000/svg">
<path d="M20.32 30.552C19.124 31.02 17.668 31.332 15.796 31.332C11.948 31.332 8.828 28.888 8.828 24.208C8.776 20.048 11.48 17.084 15.64 17.084C17.72 17.084 19.124 17.448 20.06 17.864L21.308 11.988C19.644 11.364 17.356 11 15.276 11C5.812 11 0.716003 17.084 0.716003 24.52C0.716003 32.528 5.968 37.52 14.184 37.52C17.2 37.52 19.852 37 21.256 36.376L20.32 30.552Z" fill="black"/>
<path d="M47.5383 26.808C47.6423 26.236 47.7983 25.04 47.7983 23.688C47.7983 17.396 44.6784 11 36.4623 11C27.6223 11 23.6183 18.124 23.6183 24.572C23.6183 32.528 28.5583 37.52 37.1903 37.52C40.6223 37.52 43.7943 37 46.3943 35.96L45.3544 30.604C43.2224 31.28 41.0383 31.644 38.3343 31.644C34.6423 31.644 31.4183 30.084 31.1583 26.808H47.5383ZM31.1063 21.4C31.3143 19.268 32.6663 16.252 35.9944 16.252C39.6344 16.252 40.4664 19.476 40.4664 21.4H31.1063Z" fill="black"/>
<path d="M52.547 37H60.451V0.0799866H52.547V37Z" fill="black"/>
<path d="M67.9593 6.05999V11.572H64.5793V17.396H67.9593V27.796C67.9593 31.384 68.6873 33.828 70.1433 35.336C71.3913 36.636 73.5233 37.52 76.0713 37.52C78.3073 37.52 80.1793 37.26 81.2193 36.844L81.1673 30.864C80.5953 30.968 79.8153 31.072 78.8273 31.072C76.4353 31.072 75.7073 29.668 75.7073 26.6V17.396H81.3753V11.572H75.7073V4.29199L67.9593 6.05999Z" fill="black"/>
<path d="M83.1531 11.572L91.5771 24.052L82.9451 37H91.6291L94.0211 32.424C94.6451 31.176 95.3211 29.928 95.9451 28.576H96.1011C96.7251 29.876 97.3491 31.176 98.0771 32.424L100.625 37H109.569L101.093 23.688L109.465 11.572H100.885L98.6491 15.68C97.9731 16.928 97.3491 18.228 96.6731 19.58H96.5691C95.8931 18.384 95.2171 17.084 94.4891 15.784L91.9931 11.572H83.1531Z" fill="black"/>
</svg>
