<svg viewBox="0 0 299 82" fill="none" xmlns="http://www.w3.org/2000/svg">
<path d="M32.6907 0.352715C10.2349 0.352715 0.930267 7.88872 0.930267 7.88872V41.6663C0.930267 60.372 25.6713 79.7794 32.6907 81.7106C39.7036 79.7794 64.4432 60.372 64.4432 41.6663V7.88872C64.4432 7.88872 55.1453 0.352715 32.6907 0.352715" fill="#231F20"/>
<path d="M28.8131 42.1721C28.9563 42.3565 29.0568 42.5751 29.0568 42.824C29.0568 43.4346 28.5541 43.9205 27.938 43.9205C27.312 43.9205 26.8052 43.4346 26.8052 42.824C26.8052 42.5007 26.9579 42.2174 27.1855 42.0179C26.2989 41.8538 25.3771 41.4038 25.3771 41.4038C25.5839 42.0423 26.0489 44.4929 27.6584 44.6679C29.6479 44.8929 30.162 43.0465 30.162 43.0465C30.162 43.0465 29.8303 42.457 28.8131 42.1721" fill="#FCCB06"/>
<path d="M38.3131 42.0179C38.5437 42.2174 38.6948 42.5007 38.6948 42.824C38.6948 43.4346 38.1869 43.9205 37.5631 43.9205C36.9459 43.9205 36.4432 43.4346 36.4432 42.824C36.4432 42.5751 36.5437 42.3565 36.6869 42.1721C35.6688 42.457 35.3364 43.0465 35.3364 43.0465C35.3364 43.0465 35.8511 44.8929 37.8417 44.6679C39.4511 44.4929 39.9161 42.0423 40.1219 41.4038C40.1219 41.4038 39.2011 41.8538 38.3131 42.0179" fill="#FCCB06"/>
<path d="M40.1869 36.3273C39.5344 35.7887 38.6803 36.4617 39.3276 37.1923C39.864 37.7997 40.2183 38.1913 39.9864 38.6355C39.6661 39.2366 36.6333 39.0898 32.7505 40.5507C28.8667 39.0898 25.8339 39.2366 25.5151 38.6355C25.2807 38.1913 25.6349 37.7997 26.174 37.1923C26.8197 36.4617 25.964 35.7887 25.3131 36.3273C24.7661 36.7762 23.7625 38.1595 24.1229 39.0887C24.688 40.5683 28.1489 40.1017 32.7391 42.0049V42.0117C32.7443 42.0106 32.7469 42.009 32.7505 42.0085C32.7531 42.009 32.7573 42.0106 32.7599 42.0117V42.0049C37.3521 40.1017 40.8104 40.5683 41.3781 39.0887C41.7364 38.1595 40.7349 36.7762 40.1869 36.3273Z" fill="#FCCB06"/>
<path d="M36.0995 55.6272C35.5057 55.3928 34.438 54.7756 34.1385 53.698C33.8693 52.7142 34.2505 52.0387 34.6932 51.9298C35.1115 51.8288 35.5631 52.1074 35.3807 52.6215C35.2521 53.0064 34.838 53.2007 34.688 53.2991C34.4369 53.4496 34.6516 53.7835 34.9693 53.721C35.6697 53.5835 36.076 52.8199 36.0473 52.2798C36.0136 51.4428 35.0604 51.245 34.5344 51.346C33.7156 51.5038 33.1203 52.3183 33.4563 53.721C33.7781 55.048 34.9527 55.7642 35.5697 56.045C35.0333 56.2688 33.8693 56.4516 32.7495 56.522C31.6281 56.4516 30.4683 56.2688 29.9317 56.045C30.5464 55.7642 31.7219 55.048 32.0412 53.721C32.3807 52.3183 31.7844 51.5038 30.964 51.346C30.4396 51.245 29.4864 51.4428 29.4527 52.2798C29.4251 52.8199 29.8312 53.5835 30.5292 53.721C30.8469 53.7835 31.0645 53.4496 30.8131 53.2991C30.6609 53.2007 30.2479 53.0064 30.1177 52.6215C29.938 52.1074 30.3875 51.8288 30.8052 51.9298C31.2495 52.0387 31.6307 52.7142 31.3625 53.698C31.062 54.7756 29.9953 55.3928 29.3989 55.6272C28.8937 55.8256 28.8197 56.3439 29.136 56.5283C30.1869 57.1246 31.726 57.259 32.6751 57.2715V57.274C32.6973 57.274 32.726 57.2731 32.7495 57.272C32.774 57.2731 32.8016 57.274 32.826 57.274V57.2715C33.7755 57.259 35.3131 57.1246 36.3625 56.5283C36.6817 56.3439 36.6063 55.8256 36.0995 55.6272" fill="#FCCB06"/>
<path d="M32.7713 11.047C33.0541 11.0074 33.3729 10.9204 33.6464 10.734C33.688 10.696 33.726 10.6674 33.7688 10.634C34.0683 10.3548 34.6792 9.51684 34.8599 9.14911C34.8989 9.08297 34.8989 9.00791 34.8599 8.91577C34.7792 8.72777 34.576 8.5527 34.5213 8.5371C34.2479 8.44444 31.2833 8.4355 31.0021 8.53084C31.0021 8.53084 30.9875 8.53404 30.9552 8.5527C30.8224 8.64804 30.5645 8.92404 30.6557 9.12777C30.8303 9.47884 31.4771 10.3486 31.7817 10.6272C32.0697 10.885 32.4421 10.9871 32.7713 11.047" fill="#FCCB06"/>
<path d="M30.4995 12.4642C30.5317 12.1955 30.5448 11.8726 30.4527 11.5699C30.4407 11.5188 30.4213 11.4767 30.3964 11.422C30.214 11.06 29.5656 10.2683 29.2651 9.98657C29.2027 9.9303 29.1255 9.90898 29.0317 9.91271C28.8197 9.93031 28.588 10.0658 28.5473 10.1111C28.3771 10.333 27.45 13.0502 27.4552 13.3294C27.4552 13.3294 27.4552 13.3486 27.4708 13.384C27.5177 13.536 27.7063 13.859 27.9473 13.8288C28.3391 13.7866 29.412 13.4428 29.7765 13.2455C30.1151 13.0679 30.3328 12.7548 30.4995 12.4642" fill="#FCCB06"/>
<path d="M31.1855 14.9918C30.9251 14.8731 30.6203 14.7548 30.2964 14.7548C30.2401 14.7548 30.1896 14.7548 30.1375 14.7642C29.7156 14.8174 28.7245 15.185 28.3495 15.384C28.2833 15.4199 28.2364 15.4819 28.2115 15.571C28.1609 15.7679 28.2208 16.0183 28.2495 16.0726C28.4251 16.3016 30.812 17.985 31.0932 18.0736C31.0932 18.0736 31.1021 18.0736 31.1479 18.0736C31.3093 18.0736 31.7 17.997 31.7443 17.7736C31.8156 17.4012 31.8156 16.2955 31.7339 15.897C31.6661 15.5288 31.4188 15.2355 31.1855 14.9918Z" fill="#FCCB06"/>
<path d="M33.8989 15.1361C33.7 15.333 33.4849 15.5803 33.3849 15.8876C33.3651 15.936 33.3563 15.985 33.3459 16.0392C33.2651 16.4355 33.3183 17.4737 33.3875 17.8783C33.4084 17.9513 33.4563 18.0142 33.5317 18.071C33.7193 18.1798 33.9823 18.1923 34.0396 18.1825C34.3287 18.1002 36.7219 16.4294 36.8901 16.1898C36.8901 16.1898 36.9057 16.1835 36.9109 16.1513C36.9693 15.9961 37.0099 15.6199 36.8027 15.5153C36.4563 15.3241 35.3719 14.974 34.9604 14.9163C34.5683 14.8652 34.2063 14.9981 33.8989 15.1361" fill="#FCCB06"/>
<path d="M34.8771 12.7027C35.0161 12.9461 35.1869 13.2122 35.4588 13.4017C35.4943 13.4257 35.5385 13.4565 35.5943 13.4803C35.9631 13.6741 36.9979 13.9737 37.4136 14.0289C37.4927 14.0465 37.5656 14.0163 37.6437 13.9527C37.8131 13.8257 37.9136 13.5871 37.9172 13.5294C37.9224 13.2455 37.0151 10.533 36.8417 10.3017C36.8417 10.3017 36.8303 10.285 36.8 10.2683C36.6636 10.1679 36.3027 10.0179 36.1401 10.1726C35.8459 10.4325 35.1672 11.297 34.9891 11.6627C34.8145 11.9961 34.8364 12.3762 34.8771 12.7027" fill="#FCCB06"/>
<path d="M33.4839 13.572C33.3093 13.5267 33.214 13.3412 33.2651 13.1726C33.3303 13.0059 33.5125 12.9136 33.6828 12.9726C33.8536 13.0256 33.9511 13.2032 33.8927 13.3674C33.8391 13.536 33.6531 13.6204 33.4839 13.572ZM32.7989 12.5939C32.6464 12.4944 32.6151 12.2944 32.7245 12.1491C32.826 12.0054 33.0292 11.9778 33.1844 12.0762C33.3303 12.185 33.3563 12.386 33.2479 12.5215C33.1453 12.6642 32.938 12.6996 32.7989 12.5939ZM32.838 14.4215C32.6568 14.4215 32.5136 14.283 32.5136 14.1043C32.5136 13.9308 32.6568 13.7866 32.838 13.7866C33.0229 13.7866 33.1688 13.9308 33.1688 14.1043C33.1688 14.283 33.0229 14.4215 32.838 14.4215ZM32.076 12.8527C31.9224 12.9595 31.7167 12.9194 31.6151 12.7778C31.5031 12.6335 31.5396 12.4376 31.6817 12.3366C31.8339 12.2314 32.0317 12.2679 32.1401 12.409C32.2521 12.5491 32.2183 12.746 32.076 12.8527ZM31.8927 13.9866C31.7167 14.0398 31.5317 13.9507 31.4771 13.7866C31.4276 13.6204 31.5151 13.4428 31.6817 13.384C31.8651 13.3314 32.0516 13.4179 32.0959 13.584C32.1593 13.7559 32.0645 13.9308 31.8927 13.9866ZM34.4068 12.9194C34.3312 12.7794 34.214 12.6679 34.0776 12.5778C34.0943 12.4767 34.1063 12.3746 34.0864 12.2715C34.0464 12.0204 33.9109 11.8074 33.7 11.6486C33.3495 11.407 32.8667 11.4403 32.5292 11.6846C32.2036 11.5308 31.7948 11.535 31.4953 11.7455C31.2885 11.8928 31.1427 12.11 31.1115 12.3642C31.0776 12.524 31.1073 12.6767 31.1609 12.8226C31.0855 12.8934 31.0136 12.9683 30.964 13.0611C30.8443 13.2918 30.826 13.545 30.9068 13.7866C31.036 14.1846 31.4188 14.4444 31.8417 14.4444C31.8511 14.4444 31.8599 14.4403 31.8703 14.4403C32.0317 14.747 32.3521 14.9642 32.7391 14.9642C33.1828 14.9642 33.5473 14.6715 33.6697 14.2814C34.0385 14.2278 34.3495 13.9918 34.4631 13.6444C34.55 13.4016 34.5229 13.1507 34.4068 12.9194" fill="#FCCB06"/>
<path d="M15.1776 9.53457C14.2625 8.67777 13.7495 8.48656 13.4823 8.48656C13.3328 8.48656 13.1437 8.5371 12.8312 8.87256C12.7521 8.95123 12.674 9.04283 12.5959 9.12776C12.162 9.62616 11.6229 10.259 10.6792 10.259C10.3287 10.259 9.95786 10.1627 9.55786 9.97509V17.1955C9.92399 17.8236 10.2896 18.1824 10.6011 18.1824C10.7713 18.1824 11.0656 18.0846 11.5188 17.5964C12.5855 16.4595 13.8703 16.248 15.1776 17.0179V9.53457Z" fill="#FCCB06"/>
<path d="M20.9188 10.259C19.9787 10.259 19.4303 9.62616 19.0031 9.12776C18.9251 9.04283 18.8443 8.95123 18.7688 8.87256C18.4579 8.5371 18.2661 8.48656 18.1151 8.48656C17.8459 8.48656 17.3364 8.67777 16.4265 9.53457V17.0179C16.9355 16.7131 17.4448 16.5627 17.9536 16.5627C18.7219 16.5627 19.4303 16.9084 20.0828 17.5964C20.5307 18.0846 20.8276 18.1824 20.9943 18.1824C21.3131 18.1824 21.6751 17.8236 22.0369 17.1955V9.97509C21.6375 10.1627 21.2661 10.259 20.9188 10.259" fill="#FCCB06"/>
<path d="M50.2469 17.0179C51.5527 16.248 52.8391 16.4595 53.9057 17.5964C54.3588 18.0846 54.6531 18.1824 54.8251 18.1824C55.1349 18.1824 55.4995 17.8236 55.8651 17.1955V9.97509C55.4667 10.1627 55.0959 10.259 54.7453 10.259C53.8016 10.259 53.2636 9.62616 52.8276 9.12776C52.7521 9.04283 52.6713 8.95123 52.5932 8.87256C52.2792 8.5371 52.0917 8.48656 51.9407 8.48656C51.6751 8.48656 51.1609 8.67777 50.2469 9.53457V17.0179" fill="#FCCB06"/>
<path d="M44.5047 10.259C44.1568 10.259 43.786 10.1627 43.3875 9.97509V17.1955C43.7495 17.8236 44.1125 18.1824 44.4292 18.1824C44.5969 18.1824 44.8937 18.0846 45.3417 17.5964C45.9927 16.9084 46.7027 16.5627 47.4708 16.5627C47.9787 16.5627 48.4891 16.7131 48.9995 17.0179V9.53457C48.088 8.67777 47.5803 8.48656 47.3093 8.48656C47.1593 8.48656 46.9667 8.5371 46.6557 8.87256C46.5787 8.95123 46.5005 9.04283 46.4224 9.12776C45.9927 9.62616 45.4448 10.259 44.5047 10.259" fill="#FCCB06"/>
<path d="M25.3052 32.2376C22.9787 31.4278 18.226 29.0783 16.2156 23.4824C15.6959 22.0371 14.9369 22.2512 15.0787 23.7887C15.4536 27.8152 18.0073 32.7122 23.364 34.9382C25.6593 35.8892 26.9484 32.8095 25.3052 32.2376Z" fill="#FCCB06"/>
<path d="M40.1932 32.2376C42.5203 31.4278 47.274 29.0783 49.2844 23.4824C49.8052 22.0371 50.5645 22.2512 50.4213 23.7887C50.0464 27.8152 47.4927 32.7122 42.136 34.9382C39.8391 35.8892 38.5516 32.8095 40.1932 32.2376Z" fill="#FCCB06"/>
<path d="M38.7401 31.1049C39.0568 31.0371 39.5099 30.9174 40.0281 30.748C41.4656 30.2059 44.0203 28.9122 45.9797 26.3241C41.4719 25.4445 36.8781 24.9663 32.7677 24.9663C28.6219 24.9663 23.9995 25.4538 19.464 26.3497C21.5084 29.035 24.1948 30.321 25.5812 30.8169C26.0188 30.9455 26.4109 31.0465 26.6844 31.1049C27.3303 31.2418 27.9849 31.3461 28.7912 30.6741C29.5995 29.9975 29.7479 29.5945 32.7131 29.5945C35.6765 29.5945 35.8235 29.9975 36.6323 30.6741C37.4396 31.3461 38.0959 31.2418 38.7401 31.1049" fill="#FCCB06"/>
<path d="M54.2011 38.3324L47.5787 49.2579C50.076 48.1283 53.8131 45.2866 54.2011 38.3324Z" fill="#FCCB06"/>
<path d="M17.8459 49.2579L11.2245 38.3324C11.6115 45.2866 15.3484 48.1283 17.8459 49.2579" fill="#FCCB06"/>
<path d="M52.4735 57.6516C51.1984 58.674 50.2052 59.3772 49.4041 59.9387C47.6541 61.1647 46.9797 61.7188 47.0552 62.6329L47.3625 66.5652L45.0656 65.5012C43.2557 64.698 42.4109 63.6079 42.2531 61.8496C42.0057 59.1272 43.6896 56.2912 46.7547 54.2521C47.4823 53.7756 48.1307 53.4319 48.6541 53.172C49.1697 52.9084 49.6505 52.6277 49.6959 52.4903C49.7948 52.1876 49.2183 51.6928 47.5317 50.9403C47.3625 50.8641 47.0473 50.7313 46.7599 50.61L32.7131 73.7881L18.6645 50.61C18.3771 50.7313 18.0631 50.8641 17.8912 50.9403C16.2063 51.6928 15.6297 52.1876 15.7297 52.4903C15.774 52.6277 16.2531 52.9084 16.7688 53.172C17.2921 53.4319 17.9421 53.7756 18.6688 54.2521C21.7339 56.2912 23.4188 59.1272 23.1724 61.8496C23.0136 63.6079 22.1688 64.698 20.3573 65.5012L18.0604 66.5652L18.3677 62.6329C18.4448 61.7188 17.7688 61.1647 16.0188 59.9387C15.2193 59.3772 14.226 58.674 12.9527 57.6516C5.08906 51.3335 4.8328 43.372 7.13066 39.9803C7.8964 38.8631 10.0568 36.4444 10.0708 36.4297L9.70786 35.8704C8.91719 35.7939 8.29639 35.1349 8.29639 34.3236C8.29639 33.4616 8.99533 32.7627 9.85733 32.7627C10.7208 32.7627 11.4197 33.4616 11.4197 34.3236C11.4197 34.4917 11.3875 34.6501 11.338 34.8007C11.3521 34.8127 11.3755 34.8179 11.3667 34.8496L32.7131 70.5777L54.0568 34.8496C54.05 34.8179 54.0724 34.8127 54.0864 34.8007C54.0385 34.6501 54.0057 34.4917 54.0057 34.3236C54.0057 33.4616 54.7052 32.7627 55.5656 32.7627C56.4276 32.7627 57.1271 33.4616 57.1271 34.3236C57.1271 35.1349 56.5073 35.7939 55.7167 35.8704L55.3536 36.4297C55.3667 36.4444 57.5265 38.8631 58.2921 39.9803C60.5932 43.372 60.3355 51.3335 52.4735 57.6516V57.6516ZM51.0855 27.5111C50.1765 30.0053 48.5177 32.5892 45.9031 34.5345C47.9812 35.1923 50.5932 35.2079 52.3807 34.022C51.7729 35.5751 49.8745 37.5964 48.5005 38.9272C48.2505 38.7611 48.0005 38.5444 47.8208 38.3512C47.2688 37.7605 46.7703 38.2793 47.1464 38.7688C47.2755 38.9381 47.6125 39.4179 47.8093 39.5808C47.4005 39.9595 47.1021 40.222 47.0125 40.3007C46.7364 40.1324 46.4511 39.8777 46.2495 39.6627C45.6973 39.0725 45.1984 39.5912 45.5751 40.0808C45.7079 40.2537 46.0593 40.7559 46.2557 40.9073C45.9172 41.1777 45.5464 41.472 45.2167 41.696C44.5255 40.8231 43.7833 39.9084 42.6645 40.4803C41.4797 41.086 42.6568 41.8829 42.6568 43.0688C42.6568 47.8073 39.6765 49.5657 38.9396 51.574C38.1959 53.5803 37.4943 57.1668 36.9057 58.1464C36.3276 59.1116 33.8484 60.1928 32.7131 59.3001C31.5751 60.1928 29.0735 59.1245 28.5177 58.1464C27.9604 57.1668 27.1713 53.5803 26.4265 51.574C25.6896 49.5657 22.7688 47.8073 22.7688 43.0688C22.7688 41.8829 23.9448 41.086 22.7599 40.4803C21.6401 39.9084 20.8979 40.8231 20.2063 41.696C19.8781 41.472 19.5073 41.1777 19.1697 40.9073C19.3651 40.7559 19.7156 40.2537 19.8495 40.0808C20.226 39.5912 19.7271 39.0725 19.1751 39.6627C18.9735 39.8777 18.688 40.1324 18.4109 40.3007C18.3224 40.222 18.0229 39.9595 17.614 39.5808C17.812 39.4179 18.1479 38.9381 18.2792 38.7688C18.6557 38.2793 18.1568 37.7605 17.6047 38.3512C17.4224 38.5444 17.174 38.7611 16.924 38.9272C15.55 37.5964 13.6516 35.5751 13.0437 34.022C14.9016 35.2559 17.3156 35.196 19.4251 34.4584C16.8807 32.5329 15.2547 30.0001 14.3536 27.5496C10.3312 28.6573 6.56039 30.0944 3.49013 31.834V41.9251C3.49013 58.2168 26.7833 77.0516 32.7636 78.734C38.7427 77.0516 61.8823 58.2168 61.8823 41.9251V31.7365C58.8355 30.0204 55.0855 28.6027 51.0855 27.5111" fill="#FCCB06"/>
<path d="M57.6245 20.2407L50.662 18.7627V19.4136H48.5855V18.7627L44.7167 19.3439C44.6697 19.3522 44.6229 19.3616 44.5751 19.3652L41.6271 19.8079V9.53497L42.1479 9.3907V7.68084L43.1437 8.41737C43.8511 8.94804 44.2755 9.06058 44.5047 9.06058C44.8459 9.06058 45.0917 8.79697 45.4708 8.35897C45.5604 8.26271 45.6479 8.1627 45.7297 8.06737C46.2219 7.5475 46.7312 7.29444 47.3079 7.29444C47.9901 7.29444 48.7297 7.67831 49.6271 8.46937C50.5229 7.67831 51.2609 7.29444 51.9407 7.29444C52.5151 7.29444 53.0255 7.5475 53.5109 8.06737C53.5995 8.1627 53.6896 8.26271 53.774 8.35897C54.1505 8.79697 54.4057 9.06058 54.7443 9.06058C54.9719 9.06058 55.3937 8.94804 56.0984 8.41737L57.1036 7.68084V9.3907L57.6245 9.53497V20.2407ZM39.3781 15.2746C39.2755 15.5803 38.8729 15.7439 38.3693 15.7491C38.3745 16.0392 38.2973 16.3226 38.2183 16.4355C37.9303 16.8158 34.6645 19.0887 34.2052 19.2294C34.1531 19.2423 34.0917 19.246 34.0177 19.246C33.8693 19.246 33.7052 19.2226 33.5307 19.1767C33.3797 19.6746 33.0787 20.0231 32.7323 20.0231C32.3964 20.0231 32.0995 19.6934 31.9448 19.2095C31.7479 19.283 31.5344 19.3183 31.3693 19.3183C31.286 19.3183 31.2245 19.3122 31.1672 19.2996C30.7088 19.1543 27.4563 16.8627 27.1817 16.4767C27.1011 16.3715 27.0333 16.1298 27.0188 15.8731C26.5057 15.8731 26.0959 15.7131 25.9943 15.4022C25.8937 15.0918 26.114 14.7288 26.5281 14.435C26.3079 14.1907 26.1776 13.8622 26.1776 13.7199C26.1697 13.2496 27.4188 9.56217 27.7219 9.1855C27.8 9.0939 28.0281 8.93871 28.3079 8.84644C28.1645 8.38924 28.2063 7.98244 28.4719 7.79444C28.7323 7.61471 29.1412 7.68764 29.5307 7.95484C29.7088 7.68084 29.9812 7.46311 30.1245 7.41684C30.4276 7.31738 31.7765 7.30844 32.3495 7.30844C33.2297 7.30844 34.7912 7.33817 35.0828 7.42977C35.2208 7.47884 35.4536 7.66737 35.6255 7.90697C36.0489 7.62044 36.4667 7.52617 36.7417 7.71937C36.9953 7.89391 37.0527 8.29031 36.9197 8.72777C37.2312 8.81271 37.4901 8.99031 37.5672 9.09644C37.864 9.46737 39.0932 13.1636 39.0839 13.6407C39.0839 13.7736 38.9771 14.0464 38.7948 14.283C39.2349 14.5808 39.4875 14.9516 39.3781 15.2746V15.2746ZM23.7964 19.8079L20.8495 19.3652C20.8027 19.3616 20.7547 19.3522 20.7063 19.3439L16.8391 18.7627V19.4136H15.8016H14.7625V18.7627L7.79893 20.2407V9.53497L8.3208 9.3907V7.68084L9.326 8.41737C10.0307 8.94804 10.4527 9.06058 10.6803 9.06058C11.0188 9.06058 11.2755 8.79697 11.6489 8.35897C11.7349 8.26271 11.8235 8.1627 11.912 8.06737C12.3989 7.5475 12.9084 7.29444 13.4849 7.29444C14.1636 7.29444 14.9005 7.67831 15.7964 8.46937C16.6959 7.67831 17.4328 7.29444 18.1151 7.29444C18.6932 7.29444 19.2011 7.5475 19.6932 8.06737C19.7765 8.1627 19.8625 8.26271 19.9536 8.35897C20.3328 8.79697 20.5787 9.06058 20.9213 9.06058C21.1505 9.06058 21.5735 8.94804 22.2792 8.41737L23.2765 7.68084V9.3907L23.7964 9.53497V19.8079ZM32.6844 2.77617C11.1255 2.77617 3.49013 9.37364 3.49013 9.37364V28.7788C6.41199 27.2819 9.9276 26.0366 13.6697 25.0548C13.6011 24.6704 13.5421 24.2928 13.5084 23.9308C13.4109 22.8907 13.6073 22.096 14.088 21.5674C14.4396 21.1819 14.9145 20.9694 15.424 20.9694C15.9787 20.9694 17.0031 21.2288 17.6255 22.9622C17.7636 23.3464 17.9197 23.7084 18.0839 24.0595C23.0724 23.0627 28.136 22.5262 32.6844 22.5262C37.2219 22.5262 42.3599 23.0606 47.3432 24.0548C47.5057 23.7054 47.6609 23.3444 47.7989 22.9622C48.4224 21.2288 49.4459 20.9694 49.9995 20.9694C50.5099 20.9694 50.9839 21.1819 51.3355 21.5674C51.8172 22.096 52.0125 22.8907 51.9161 23.9308C51.8823 24.2975 51.8224 24.6794 51.7531 25.0679C55.4745 26.047 58.9719 27.2892 61.8823 28.7788V9.37364C61.8823 9.37364 54.2349 2.77617 32.6844 2.77617" fill="#E42124"/>
<path d="M49.4084 50.1387C50.3729 50.6658 51.3703 51.4387 51.3703 52.4903C51.3703 53.6095 50.4355 54.0866 49.4355 54.5986C48.9251 54.8622 48.3536 55.1486 47.7052 55.5855C46.7401 56.2236 43.636 58.5428 43.9188 61.709C44.0213 62.8106 44.4344 63.397 45.5317 63.9308L45.3885 62.5084C45.3235 61.095 46.5864 59.9204 48.4172 58.635C49.1984 58.0824 50.1661 57.4007 51.4031 56.4122C58.1792 50.9694 58.938 43.8887 56.8927 40.8652C56.6193 40.4636 56.2183 39.8903 55.812 39.3251C55.2052 45.495 52.0631 48.597 49.4084 50.1387" fill="#E42124"/>
<path d="M9.614 39.3251C9.20626 39.8903 8.8052 40.4636 8.53173 40.8652C6.48746 43.8887 7.24426 50.9694 14.0213 56.4122C15.2573 57.4007 16.226 58.0824 17.0073 58.635C18.838 59.9204 20.1011 61.095 20.0369 62.5084L19.8927 63.9308C20.9901 63.397 21.4016 62.8106 21.5057 61.709C21.7885 58.5428 18.6828 56.2236 17.7183 55.5855C17.0708 55.1486 16.5005 54.8622 15.9891 54.5986C14.9901 54.0866 14.0552 53.6095 14.0552 52.4903C14.0552 51.4387 15.05 50.6658 16.0161 50.1387C13.3625 48.597 10.2193 45.495 9.614 39.3251" fill="#E42124"/>
<path d="M79.3276 18.1455V7.99804H83.1177V18.0439C83.1177 20.9355 84.5203 22.4319 86.8339 22.4319C89.1464 22.4319 90.55 20.985 90.55 18.1699V7.99804H94.3391V18.0179C94.3391 23.3955 91.4093 26.0335 86.7844 26.0335C82.1568 26.0335 79.3276 23.3704 79.3276 18.1455" fill="#231F20"/>
<path d="M99.6803 7.99805H103.175L111.245 18.9303V7.99805H114.987V25.7549H111.763L103.42 14.4669V25.7549H99.6803V7.99805" fill="#231F20"/>
<path d="M120.772 7.99805H124.56V25.7549H120.772V7.99805" fill="#231F20"/>
<path d="M128.868 7.99805H133.051L137.555 20.5033L142.057 7.99805H146.143L139.179 25.8809H135.832L128.868 7.99805Z" fill="#231F20"/>
<path d="M150.279 7.99805H163.271V11.4737H154.044V15.0762H162.165V18.5502H154.044V22.2794H163.393V25.7549H150.279V7.99805" fill="#231F20"/>
<path d="M176.857 16.6231C178.703 16.6231 179.76 15.6074 179.76 14.1127V14.0606C179.76 12.3877 178.628 11.5241 176.784 11.5241H173.019V16.6231H176.857ZM169.229 7.99805H177.104C179.292 7.99805 180.989 8.63246 182.123 9.80019C183.084 10.7898 183.599 12.183 183.599 13.8574V13.9085C183.599 16.7756 182.099 18.5762 179.909 19.4136L184.117 25.7549H179.688L175.995 20.0726H175.945H173.019V25.7549H169.229V7.99805" fill="#231F20"/>
<path d="M188.3 23.1674L190.539 20.4017C192.091 21.7221 193.713 22.5579 195.683 22.5579C197.235 22.5579 198.169 21.9251 198.169 20.8835V20.8341C198.169 19.8445 197.579 19.3366 194.697 18.5762C191.229 17.6622 188.989 16.6726 188.989 13.1465V13.097C188.989 9.87565 191.5 7.74552 195.019 7.74552C197.528 7.74552 199.669 8.55539 201.417 10.0033L199.448 12.9461C197.921 11.8549 196.421 11.1934 194.969 11.1934C193.519 11.1934 192.755 11.8798 192.755 12.7418V12.7923C192.755 13.959 193.492 14.3393 196.472 15.1257C199.964 16.0658 201.935 17.3574 201.935 20.4538V20.5033C201.935 24.0294 199.325 26.0085 195.609 26.0085C193 26.0085 190.367 25.0699 188.3 23.1674" fill="#231F20"/>
<path d="M207.372 7.99805H211.161V25.7549H207.372V7.99805" fill="#231F20"/>
<path d="M220.959 11.5997H215.716V7.99805H229.989V11.5997H224.748V25.7549H220.959V11.5997Z" fill="#231F20"/>
<path d="M239.711 18.7532L233.091 7.99805H237.521L241.631 15.1257L245.812 7.99805H250.12L243.5 18.6778V25.7549H239.711V18.7532" fill="#231F20"/>
<path d="M276.549 16.9278V16.8756C276.549 13.833 274.385 11.2964 271.333 11.2964C268.281 11.2964 266.167 13.7819 266.167 16.8262V16.8756C266.167 19.9199 268.333 22.4564 271.383 22.4564C274.435 22.4564 276.549 19.972 276.549 16.9278V16.9278ZM262.203 16.9278V16.8756C262.203 11.8288 266.068 7.69338 271.383 7.69338C276.697 7.69338 280.513 11.7767 280.513 16.8262V16.8756C280.513 21.9251 276.648 26.0595 271.333 26.0595C266.019 26.0595 262.203 21.9746 262.203 16.9278Z" fill="#231F20"/>
<path d="M284.721 7.99805H297.836V11.5502H288.511V15.3289H296.729V18.8809H288.511V25.7549H284.721V7.99805" fill="#231F20"/>
<path d="M93.7584 32.8543C84.3391 32.8543 77.2375 40.2194 77.2375 49.985V50.0824C77.2375 54.7095 78.8875 59.0032 81.8807 62.1668C84.9031 65.359 89.0396 67.1152 93.5281 67.1152C98.8459 67.1152 102.597 65.4428 106.437 61.347L102.987 57.7319C100.222 60.3824 97.688 62.0194 93.7115 62.0194C87.6516 62.0194 82.9068 56.7324 82.9068 49.985V49.8903C82.9068 43.0846 87.5527 37.9512 93.7115 37.9512C96.9771 37.9512 99.7688 39.2147 102.747 42.0398L106.207 37.9188C103.633 35.397 100.128 32.8543 93.7584 32.8543" fill="#231F20"/>
<path d="M130.647 53.5705H119.087L124.841 39.683L130.647 53.5705ZM135.876 66.545H141.824L127.732 33.1882H122.149L108.056 66.545H113.807L117.133 58.4767H132.6L135.876 66.545" fill="#231F20"/>
<path d="M225.081 53.5705H213.521L219.276 39.683L225.081 53.5705ZM230.312 66.545H236.257L222.164 33.1882H216.584L202.492 66.545H208.243L211.568 58.4767H227.033L230.312 66.545" fill="#231F20"/>
<path d="M145.332 66.545H168.123V61.4929H151.136V33.4294H145.332V66.545Z" fill="#231F20"/>
<path d="M185.544 32.8543C176.281 32.8543 168.685 40.3788 168.685 49.985V50.0824C168.685 60.1122 175.855 67.1152 185.633 67.1152C191.831 67.1152 196.3 64.3398 199.492 61.9939V48.1767H186.224V52.9898H193.763V59.4642L193.708 59.5079C191.593 61.1324 188.719 62.0668 185.82 62.0668C179.268 62.0668 174.691 57.097 174.691 49.985V49.8903C174.691 43.3084 179.456 37.9512 185.309 37.9512C189.429 37.9512 191.912 39.3564 194.341 41.471L197.76 37.2584C194.151 34.1324 190.599 32.8543 185.544 32.8543Z" fill="#231F20"/>
<path d="M254.208 49.9887H245.752V38.4778H254.161C258.508 38.4778 260.997 40.5491 260.997 44.1627V44.259C260.997 47.7407 258.331 49.9887 254.208 49.9887ZM261.021 66.545H267.361L258.685 53.957L258.877 53.9002C263.781 52.4527 267.055 48.909 267.055 43.9231V43.8278C267.055 41.0142 265.568 38.5579 263.844 36.7221C261.713 34.5669 258.524 33.4294 254.623 33.4294H239.989V66.545H245.752V54.896H253.084L261.021 66.545" fill="#231F20"/>
<path d="M279.909 66.545H286.104V53.807L298.823 33.4294H292.424L283.205 48.3502L274.079 33.4294H267.568L279.909 53.807V66.545" fill="#231F20"/>
</svg>
