<?xml version="1.0" encoding="UTF-8"?>
<svg width="489px" height="73px" viewBox="0 0 489 73" version="1.1" xmlns="http://www.w3.org/2000/svg" xmlns:xlink="http://www.w3.org/1999/xlink">
    <!-- Generator: Sketch 54.1 (76490) - https://sketchapp.com -->
    <title>Group</title>
    <desc>Created with Sketch.</desc>
    <g id="Page-1" stroke="none" stroke-width="1" fill="none" fill-rule="evenodd">
        <g id="tr_h_lg_rgb_ps" transform="translate(-51.000000, -51.000000)">
            <g id="Group" transform="translate(51.404000, 51.594974)">
                <path d="M28.57,39.4870261 C29.144,39.3610261 29.509,38.7860261 29.41,38.2030261 C29.282,37.6060261 28.703,37.1980261 28.12,37.3490261 C27.504,37.4520261 27.147,38.0350261 27.265,38.5940261 C27.387,39.2090261 27.963,39.6280261 28.57,39.4870261 Z M50.767,34.8540261 C51.341,34.7220261 51.703,34.1520261 51.607,33.5690261 C51.475,32.9620261 50.892,32.5550261 50.315,32.7080261 C49.702,32.8050261 49.347,33.3960261 49.46,33.9630261 C49.576,34.5650261 50.16,34.9810261 50.767,34.8540261 Z M31.234,44.3980261 C31.913,43.8410261 31.996,42.9040261 31.509,42.2460261 C30.959,41.6110261 30.013,41.4940261 29.355,41.9920261 C28.717,42.4800261 28.597,43.4450261 29.123,44.1060261 C29.619,44.7610261 30.581,44.9240261 31.234,44.3980261 Z M49.378,30.1530261 C50.06,29.5970261 50.138,28.6570261 49.65,28.0020261 C49.105,27.3710261 48.155,27.2540261 47.505,27.7530261 C46.87,28.2460261 46.739,29.2110261 47.273,29.8660261 C47.769,30.5220261 48.729,30.6840261 49.378,30.1530261 Z M37.195,47.8350261 C37.623,46.8030261 37.056,45.5830261 36.021,45.2130261 C34.929,44.7880261 33.79,45.3230261 33.344,46.4280261 C32.938,47.4670261 33.493,48.6380261 34.565,49.0510261 C35.642,49.4070261 36.796,48.8930261 37.195,47.8350261 Z M45.44,25.8230261 C45.848,24.8030261 45.3,23.5770261 44.256,23.2090261 C43.168,22.7900261 42.034,23.3280261 41.578,24.4230261 C41.168,25.4660261 41.735,26.6360261 42.794,27.0480261 C43.875,27.3970261 45.032,26.8980261 45.44,25.8230261 Z M49.122,38.6690261 C48.938,39.5100261 49.355,40.2970261 50.168,40.5130261 C50.975,40.7350261 51.806,40.2230261 52.018,39.4520261 C52.229,38.6590261 51.744,37.8550261 50.945,37.6490261 C50.15,37.4150261 49.333,37.9000261 49.122,38.6690261 Z M46.089,42.8370261 C45.243,43.7170261 45.243,45.1330261 46.105,46.0150261 C46.993,46.8620261 48.387,46.8480261 49.189,46.0070261 C50.104,45.1470261 50.122,43.7030261 49.245,42.8660261 C48.356,41.9840261 46.976,41.9840261 46.089,42.8370261 Z M41.432,45.2790261 C40.231,45.5790261 39.398,46.8180261 39.695,48.0290261 C39.957,49.2930261 41.228,50.0880261 42.465,49.8140261 C43.728,49.5550261 44.492,48.2820261 44.24,47.0410261 C43.938,45.7730261 42.707,45.0300261 41.432,45.2790261 Z M26.785,32.7040261 C26.557,33.5310261 27.026,34.3190261 27.856,34.5700261 C28.62,34.7710261 29.446,34.2930261 29.654,33.5060261 C29.885,32.7040261 29.375,31.9000261 28.602,31.6830261 C27.818,31.4700261 27.004,31.9270261 26.785,32.7040261 Z M29.556,26.1830261 C28.722,27.0690261 28.68,28.4580261 29.544,29.3130261 C30.411,30.1900261 31.803,30.1970261 32.713,29.3130261 C33.558,28.4580261 33.558,27.0690261 32.684,26.1830261 C31.818,25.3220261 30.418,25.3330261 29.556,26.1830261 Z M36.342,22.3910261 C35.057,22.6520261 34.275,23.9060261 34.523,25.1260261 C34.844,26.3750261 36.057,27.1750261 37.331,26.8810261 C38.565,26.6090261 39.356,25.3750261 39.082,24.1280261 C38.795,22.8960261 37.55,22.0930261 36.342,22.3910261 Z M51.168,50.2510261 C51.837,50.8980261 52.828,50.9200261 53.463,50.2440261 C54.103,49.6520261 54.139,48.6550261 53.472,48.0190261 C52.86,47.3570261 51.803,47.3660261 51.196,47.9780261 C50.569,48.6130261 50.561,49.6520261 51.168,50.2510261 Z M25.144,24.0700261 C25.791,24.7080261 26.822,24.7370261 27.449,24.0620261 C28.058,23.4400261 28.081,22.4130261 27.442,21.7890261 C26.802,21.1640261 25.791,21.1740261 25.155,21.7850261 C24.54,22.4130261 24.54,23.4400261 25.144,24.0700261 Z M55.738,44.6240261 C56.573,44.9840261 57.516,44.5740261 57.867,43.7600261 C58.205,42.9440261 57.815,41.9860261 57.001,41.6470261 C56.168,41.2800261 55.233,41.6760261 54.914,42.5110261 C54.535,43.3500261 54.963,44.3080261 55.738,44.6240261 Z M58.034,38.2920261 C59.115,38.2920261 59.988,37.4450261 59.992,36.3750261 C60.023,35.3190261 59.176,34.4200261 58.1,34.4050261 C57.051,34.3920261 56.139,35.2180261 56.114,36.3020261 C56.124,37.3620261 56.979,38.2460261 58.034,38.2920261 Z M58.003,31.4360261 C59.293,30.9510261 59.909,29.4990261 59.38,28.2010261 C58.896,26.9470261 57.474,26.2760261 56.217,26.7790261 C54.897,27.2960261 54.252,28.7250261 54.757,30.0070261 C55.273,31.3140261 56.712,31.9350261 58.003,31.4360261 Z M21.62,30.4020261 C22.468,30.7200261 23.403,30.3360261 23.752,29.5130261 C24.082,28.6950261 23.703,27.7480261 22.89,27.3880261 C22.063,27.0390261 21.088,27.4530261 20.77,28.2750261 C20.43,29.0880261 20.815,30.0370261 21.62,30.4020261 Z M20.537,37.6400261 C21.579,37.6460261 22.467,36.7890261 22.491,35.7180261 C22.509,34.6710261 21.623,33.7870261 20.612,33.7690261 C19.524,33.7470261 18.641,34.5780261 18.618,35.6510261 C18.597,36.7390261 19.465,37.6180261 20.537,37.6400261 Z M22.442,45.2560261 C23.719,44.7660261 24.384,43.3350261 23.856,42.0000261 C23.382,40.7170261 21.918,40.0780261 20.643,40.6110261 C19.354,41.1070261 18.729,42.5510261 19.221,43.8210261 C19.731,45.0990261 21.146,45.7580261 22.442,45.2560261 Z M45.677,51.5070261 C44.802,51.8650261 44.341,52.8620261 44.731,53.7760261 C45.098,54.6710261 46.135,55.1130261 47.016,54.7590261 C47.908,54.3770261 48.356,53.3770261 47.951,52.4530261 C47.609,51.5490261 46.566,51.1220261 45.677,51.5070261 Z M39.254,52.4170261 C37.971,52.3960261 36.918,53.4680261 36.89,54.7640261 C36.918,56.1000261 37.971,57.1130261 39.236,57.1470261 C40.537,57.1180261 41.594,56.1000261 41.623,54.7940261 C41.643,53.5100261 40.579,52.4500261 39.254,52.4170261 Z M33.196,51.2030261 C31.822,50.6250261 30.265,51.3270261 29.693,52.7070261 C29.164,54.0730261 29.844,55.6500261 31.207,56.1750261 C32.547,56.7190261 34.121,56.1060261 34.668,54.7250261 C35.224,53.3380261 34.575,51.7840261 33.196,51.2030261 Z M27.877,47.3670261 C26.74,46.1920261 24.846,46.1940261 23.7,47.3400261 C22.508,48.5230261 22.495,50.3890261 23.649,51.5540261 C24.835,52.7150261 26.71,52.7240261 27.877,51.5850261 C29.047,50.4180261 29.047,48.5380261 27.877,47.3670261 Z M31.626,17.3010261 C30.725,17.6610261 30.306,18.6890261 30.658,19.5690261 C31.059,20.4820261 32.073,20.9060261 32.971,20.5600261 C33.875,20.1680261 34.276,19.1220261 33.902,18.2490261 C33.545,17.3340261 32.51,16.9300261 31.626,17.3010261 Z M39.399,14.8970261 C38.099,14.8920261 37.022,15.9570261 37.022,17.2740261 C37.044,18.5030261 38.067,19.5860261 39.39,19.5910261 C40.66,19.6150261 41.748,18.5450261 41.723,17.2490261 C41.748,16.0010261 40.684,14.9140261 39.399,14.8970261 Z M47.464,15.8680261 C46.11,15.3140261 44.544,15.9910261 43.972,17.3270261 C43.429,18.6760261 44.103,20.2990261 45.445,20.8340261 C46.848,21.3850261 48.393,20.7160261 48.936,19.3410261 C49.501,17.9700261 48.83,16.4320261 47.464,15.8680261 Z M54.952,20.4970261 C53.768,19.3290261 51.889,19.3060261 50.724,20.5120261 C49.571,21.6200261 49.571,23.5100261 50.724,24.6650261 C51.889,25.8370261 53.768,25.8550261 54.936,24.6940261 C56.114,23.5100261 56.141,21.6590261 54.952,20.4970261 Z M55.268,56.8840261 C55.784,57.4880261 56.682,57.5550261 57.273,57.0500261 C57.872,56.5540261 57.947,55.6500261 57.429,55.0620261 C56.932,54.4860261 56.03,54.4200261 55.449,54.9050261 C54.852,55.4140261 54.78,56.3070261 55.268,56.8840261 Z M59.574,53.0130261 C60.298,53.5470261 61.327,53.4030261 61.858,52.6660261 C62.403,51.9400261 62.241,50.9250261 61.532,50.3850261 C60.784,49.8470261 59.758,49.9910261 59.237,50.7220261 C58.698,51.4490261 58.854,52.4700261 59.574,53.0130261 Z M63.32,47.7220261 C64.311,48.1350261 65.449,47.6460261 65.827,46.6440261 C66.224,45.6520261 65.765,44.5330261 64.756,44.1310261 C63.774,43.7360261 62.647,44.2000261 62.246,45.2100261 C61.862,46.1980261 62.339,47.3240261 63.32,47.7220261 Z M65.858,40.8320261 C66.97,40.9660261 67.989,40.1380261 68.107,39.0300261 C68.233,37.8930261 67.408,36.8980261 66.296,36.7770261 C65.159,36.6680261 64.153,37.4800261 64.036,38.5870261 C63.915,39.7000261 64.736,40.7310261 65.858,40.8320261 Z M66.371,33.6800261 C67.73,33.4510261 68.643,32.1320261 68.379,30.7710261 C68.157,29.4190261 66.841,28.5070261 65.471,28.7560261 C64.113,29.0180261 63.203,30.3020261 63.456,31.6710261 C63.721,33.0280261 65.004,33.9440261 66.371,33.6800261 Z M21.273,16.9370261 C21.808,17.5220261 22.684,17.6040261 23.267,17.1060261 C23.867,16.5790261 23.936,15.6940261 23.444,15.1090261 C22.938,14.5320261 22.029,14.4520261 21.448,14.9550261 C20.855,15.4770261 20.787,16.3510261 21.273,16.9370261 Z M17.2,21.6270261 C17.928,22.1600261 18.949,22.0150261 19.481,21.2690261 C20.028,20.5570261 19.878,19.5330261 19.153,19.0120261 C18.419,18.4630261 17.398,18.6160261 16.871,19.3400261 C16.325,20.0680261 16.487,21.0830261 17.2,21.6270261 Z M13.951,27.8740261 C14.937,28.2580261 16.072,27.8000261 16.48,26.7870261 C16.874,25.8030261 16.39,24.6700261 15.399,24.2800261 C14.408,23.8830261 13.291,24.3500261 12.869,25.3590261 C12.486,26.3330261 12.96,27.4620261 13.951,27.8740261 Z M12.431,35.2290261 C13.549,35.3670261 14.56,34.5250261 14.706,33.4100261 C14.795,32.2860261 13.977,31.2850261 12.844,31.1680261 C11.739,31.0480261 10.73,31.8670261 10.609,32.9790261 C10.483,34.0990261 11.302,35.1240261 12.431,35.2290261 Z M13.24,43.2510261 C14.621,43.0100261 15.518,41.7020261 15.261,40.3510261 C15.015,38.9860261 13.724,38.0570261 12.348,38.3300261 C10.986,38.5810261 10.084,39.8690261 10.329,41.2390261 C10.578,42.5820261 11.87,43.5120261 13.24,43.2510261 Z M51.344,58.0110261 C50.761,58.3230261 50.555,59.0750261 50.87,59.6550261 C51.187,60.2400261 51.92,60.4500261 52.511,60.1380261 C53.09,59.8250261 53.325,59.0890261 52.997,58.5050261 C52.682,57.9110261 51.942,57.6890261 51.344,58.0110261 Z M46.516,59.7790261 C45.772,60.0130261 45.359,60.7940261 45.57,61.5220261 C45.803,62.2790261 46.579,62.6940261 47.332,62.4850261 C48.065,62.2510261 48.506,61.4650261 48.273,60.7110261 C48.049,59.9830261 47.263,59.5680261 46.516,59.7790261 Z M40.933,60.6850261 C40.026,60.7290261 39.353,61.5180261 39.413,62.4140261 C39.487,63.3200261 40.25,64.0000261 41.152,63.9350261 C42.047,63.8810261 42.729,63.1050261 42.667,62.1980261 C42.634,61.3020261 41.832,60.6310261 40.933,60.6850261 Z M34.712,60.0530261 C33.56,59.8330261 32.458,60.5750261 32.226,61.7130261 C31.997,62.8810261 32.749,63.9780261 33.892,64.2150261 C35.064,64.4410261 36.163,63.6890261 36.389,62.5270261 C36.608,61.3790261 35.849,60.2650261 34.712,60.0530261 Z M28.348,57.7280261 C27.116,57.1220261 25.613,57.6200261 24.984,58.8530261 C24.381,60.0820261 24.864,61.5630261 26.081,62.2210261 C27.323,62.8300261 28.822,62.3300261 29.466,61.0830261 C30.083,59.8700261 29.578,58.3570261 28.348,57.7280261 Z M22.961,53.5580261 C21.765,52.4540261 19.906,52.5160261 18.811,53.6930261 C17.695,54.8860261 17.766,56.7520261 18.943,57.8480261 C20.13,58.9600261 21.999,58.9050261 23.102,57.7270261 C24.212,56.5140261 24.159,54.6620261 22.961,53.5580261 Z M18.542,47.3240261 C17.691,45.7870261 15.768,45.2140261 14.219,46.0570261 C12.682,46.9020261 12.125,48.8280261 12.969,50.3700261 C13.802,51.9010261 15.725,52.4930261 17.276,51.6590261 C18.816,50.8070261 19.382,48.8720261 18.542,47.3240261 Z M26.211,11.8640261 C25.616,12.1730261 25.4,12.9230261 25.72,13.5070261 C26.039,14.0840261 26.774,14.3230261 27.368,13.9910261 C27.948,13.6690261 28.172,12.9250261 27.86,12.3420261 C27.537,11.7520261 26.781,11.5420261 26.211,11.8640261 Z M31.391,9.53602614 C30.653,9.74902614 30.245,10.5370261 30.458,11.2860261 C30.692,12.0290261 31.466,12.4560261 32.202,12.2310261 C32.957,12.0090261 33.367,11.2090261 33.139,10.4710261 C32.928,9.72802614 32.151,9.31002614 31.391,9.53602614 Z M37.554,8.06602614 C36.668,8.12802614 35.99,8.89702614 36.036,9.79302614 C36.101,10.6870261 36.874,11.3810261 37.778,11.3260261 C38.684,11.2730261 39.358,10.4800261 39.303,9.57702614 C39.232,8.67702614 38.463,8.01002614 37.554,8.06602614 Z M44.826,7.81202614 C43.65,7.57802614 42.553,8.33602614 42.331,9.48402614 C42.108,10.6270261 42.87,11.7470261 44.006,11.9590261 C45.168,12.1870261 46.269,11.4270261 46.5,10.2930261 C46.717,9.12702614 45.955,8.03702614 44.826,7.81202614 Z M52.397,9.64902614 C51.176,9.03502614 49.672,9.53302614 49.049,10.8100261 C48.448,12.0240261 48.947,13.5400261 50.186,14.1510261 C51.429,14.7520261 52.94,14.2680261 53.541,13.0020261 C54.15,11.7490261 53.645,10.2740261 52.397,9.64902614 Z M59.799,14.1410261 C58.603,13.0220261 56.742,13.0800261 55.64,14.2690261 C54.548,15.4640261 54.59,17.3280261 55.786,18.4400261 C56.967,19.5360261 58.842,19.4820261 59.947,18.2990261 C61.049,17.1070261 60.996,15.2380261 59.799,14.1410261 Z M65.759,21.6330261 C64.917,20.1000261 62.989,19.5190261 61.436,20.3500261 C59.894,21.2020261 59.322,23.1340261 60.16,24.6660261 C61.002,26.2140261 62.93,26.7930261 64.483,25.9680261 C66.029,25.1150261 66.599,23.1780261 65.759,21.6330261 Z M44.593,69.9990261 C44.797,71.0090261 45.786,71.6520261 46.778,71.4320261 C47.78,71.2270261 48.414,70.2370261 48.205,69.2510261 C48.004,68.2590261 47.011,67.6250261 46.022,67.8250261 C45.034,68.0360261 44.387,69.0080261 44.593,69.9990261 Z M51.956,68.2210261 C52.451,69.3080261 53.738,69.7690261 54.803,69.2790261 C55.882,68.7700261 56.341,67.4950261 55.845,66.4170261 C55.335,65.3430261 54.077,64.8730261 52.996,65.3820261 C51.932,65.8850261 51.473,67.1560261 51.956,68.2210261 Z M59.497,64.5630261 C60.427,65.6980261 62.095,65.8630261 63.214,64.9120261 C64.336,63.9850261 64.504,62.3230261 63.558,61.1940261 C62.647,60.0780261 60.985,59.9080261 59.857,60.8560261 C58.743,61.7660261 58.572,63.4330261 59.497,64.5630261 Z M66.598,58.4780261 C67.972,59.4420261 69.899,59.0870261 70.852,57.7090261 C71.814,56.3050261 71.455,54.4070261 70.077,53.4520261 C68.661,52.4870261 66.773,52.8260261 65.811,54.2280261 C64.87,55.6070261 65.2,57.5380261 66.598,58.4780261 Z M71.784,50.5710261 C73.656,51.2020261 75.703,50.1590261 76.335,48.2680261 C76.957,46.4020261 75.936,44.3550261 74.037,43.7180261 C72.142,43.1000261 70.122,44.1250261 69.497,46.0100261 C68.868,47.9050261 69.891,49.9360261 71.784,50.5710261 Z M30.515,2.73802614 C30.728,3.75802614 31.709,4.38702614 32.703,4.17502614 C33.702,3.96502614 34.34,2.99902614 34.131,1.99402614 C33.921,1.00302614 32.931,0.361026138 31.951,0.571026138 C30.941,0.779026138 30.309,1.74502614 30.515,2.73802614 Z M22.873,5.59202614 C23.372,6.66402614 24.658,7.13102614 25.723,6.61802614 C26.801,6.13602614 27.258,4.86102614 26.766,3.79002614 C26.261,2.72202614 24.982,2.26102614 23.923,2.74002614 C22.847,3.24702614 22.39,4.51202614 22.873,5.59202614 Z M15.151,10.7980261 C16.08,11.9250261 17.74,12.0920261 18.874,11.1410261 C19.997,10.2260261 20.158,8.55502614 19.23,7.44102614 C18.298,6.30902614 16.647,6.14202614 15.51,7.08702614 C14.384,8.00802614 14.216,9.67102614 15.151,10.7980261 Z M8.647,18.5600261 C10.037,19.5290261 11.939,19.1670261 12.922,17.7770261 C13.862,16.3830261 13.517,14.4890261 12.123,13.5200261 C10.735,12.5600261 8.829,12.9090261 7.872,14.2930261 C6.904,15.6830261 7.261,17.6000261 8.647,18.5600261 Z M4.686,28.2900261 C6.567,28.9200261 8.604,27.8850261 9.232,26.0030261 C9.855,24.1230261 8.838,22.0860261 6.936,21.4540261 C5.049,20.8320261 3.02,21.8460261 2.388,23.7410261 C1.776,25.6120261 2.784,27.6650261 4.686,28.2900261 Z M39.369,68.8250261 C38.489,68.8250261 37.784,69.5470261 37.784,70.4120261 C37.784,71.2900261 38.489,71.9890261 39.369,72.0010261 C40.241,71.9890261 40.953,71.2900261 40.953,70.4120261 C40.953,69.5470261 40.241,68.8250261 39.369,68.8250261 Z M32.709,67.8250261 C31.713,67.6250261 30.723,68.2680261 30.524,69.2580261 C30.313,70.2490261 30.958,71.2360261 31.951,71.4380261 C32.937,71.6520261 33.927,71.0150261 34.131,70.0090261 C34.341,69.0120261 33.694,68.0400261 32.709,67.8250261 Z M25.713,65.3810261 C24.646,64.8690261 23.378,65.3370261 22.88,66.4090261 C22.39,67.4900261 22.847,68.7590261 23.923,69.2570261 C24.982,69.7520261 26.261,69.3010261 26.766,68.2080261 C27.258,67.1560261 26.783,65.8700261 25.713,65.3810261 Z M18.872,60.8560261 C17.74,59.9160261 16.08,60.0920261 15.151,61.2040261 C14.211,62.3300261 14.378,63.9860261 15.501,64.9130261 C16.634,65.8630261 18.298,65.6990261 19.226,64.5630261 C20.155,63.4430261 19.988,61.7660261 18.872,60.8560261 Z M12.911,54.2280261 C11.95,52.8490261 10.044,52.4950261 8.655,53.4610261 C7.267,54.4070261 6.915,56.3180261 7.857,57.7180261 C8.823,59.0910261 10.735,59.4380261 12.132,58.4820261 C13.517,57.5300261 13.879,55.6180261 12.911,54.2280261 Z M9.238,46.0020261 C8.599,44.1160261 6.565,43.0920261 4.694,43.7130261 C2.784,44.3360261 1.776,46.3890261 2.388,48.2630261 C3.01,50.1590261 5.049,51.1840261 6.941,50.5600261 C8.833,49.9270261 9.857,47.8980261 9.238,46.0020261 Z M8.318,35.9960261 C8.318,33.7070261 6.462,31.8360261 4.155,31.8360261 C1.863,31.8360261 7.10542736e-15,33.7070261 7.10542736e-15,35.9960261 C7.10542736e-15,38.3060261 1.863,40.1780261 4.155,40.1780261 C6.462,40.1780261 8.318,38.3060261 8.318,35.9960261 Z M39.35,2.61378089e-05 C38.475,-0.00497386219 37.772,0.708026138 37.772,1.58102614 C37.772,2.45602614 38.475,3.17002614 39.35,3.17002614 C40.229,3.17002614 40.934,2.45602614 40.934,1.58102614 C40.934,0.708026138 40.229,-0.00497386219 39.35,2.61378089e-05 Z M46.78,0.577026138 C45.787,0.361026138 44.817,0.993026138 44.6,2.00302614 C44.396,2.99902614 45.034,3.97102614 46.022,4.17502614 C47.015,4.39602614 48.005,3.75802614 48.209,2.74402614 C48.415,1.74902614 47.777,0.779026138 46.78,0.577026138 Z M54.797,2.74002614 C53.724,2.26102614 52.463,2.72202614 51.956,3.78102614 C51.473,4.84202614 51.932,6.12602614 52.996,6.61802614 C54.074,7.13102614 55.353,6.66002614 55.845,5.58502614 C56.341,4.50502614 55.878,3.23802614 54.797,2.74002614 Z M63.207,7.09102614 C62.083,6.15002614 60.427,6.32002614 59.493,7.44702614 C58.566,8.56202614 58.721,10.2340261 59.849,11.1570261 C60.975,12.0920261 62.646,11.9300261 63.557,10.8060261 C64.503,9.67202614 64.328,8.01702614 63.207,7.09102614 Z M70.844,14.2930261 C69.887,12.9140261 67.981,12.5550261 66.587,13.5270261 C65.205,14.4780261 64.855,16.3960261 65.805,17.7730261 C66.769,19.1780261 68.672,19.5370261 70.071,18.5600261 C71.464,17.5880261 71.804,15.7060261 70.844,14.2930261 Z M76.335,23.7400261 C75.697,21.8400261 73.656,20.8190261 71.784,21.4450261 C69.896,22.0760261 68.868,24.1050261 69.492,25.9960261 C70.128,27.8730261 72.161,28.9010261 74.037,28.2830261 C75.93,27.6560261 76.951,25.6050261 76.335,23.7400261 Z M78.725,35.9960261 C78.725,33.7070261 76.859,31.8360261 74.555,31.8360261 C72.257,31.8360261 70.392,33.7070261 70.392,35.9960261 C70.392,38.3060261 72.257,40.1780261 74.555,40.1780261 C76.859,40.1780261 78.725,38.3060261 78.725,35.9960261 L78.725,35.9960261 Z" id="Fill-1" fill="#E6772B"></path>
                <path d="M484.326,27.0570261 C484.326,27.6980261 483.923,27.8440261 483.169,27.8440261 C483.047,27.8440261 482.339,27.8290261 482.22,27.8210261 L482.22,26.2380261 C482.353,26.2230261 483.017,26.2090261 483.169,26.2090261 C483.902,26.2090261 484.326,26.4430261 484.326,26.9910261 L484.326,27.0570261 Z M485.495,30.4420261 L484.347,28.4860261 C484.947,28.2530261 485.334,27.8300261 485.334,27.0570261 L485.334,26.9910261 C485.334,25.7410261 484.295,25.3400261 483.169,25.3400261 C482.638,25.3400261 481.82,25.3760261 481.44,25.4350261 C481.293,25.4550261 481.206,25.5070261 481.206,25.6530261 L481.206,30.4420261 C481.206,30.5210261 481.273,30.5870261 481.353,30.5870261 L482.083,30.5870261 C482.162,30.5870261 482.22,30.5210261 482.22,30.4420261 L482.22,28.6400261 C482.39,28.6490261 482.981,28.6700261 483.169,28.6700261 L483.332,28.6700261 L484.386,30.4420261 C484.421,30.5130261 484.45,30.5870261 484.531,30.5870261 L485.423,30.5870261 C485.48,30.5870261 485.51,30.5500261 485.51,30.5000261 C485.51,30.4840261 485.51,30.4630261 485.495,30.4420261 Z M478.569,28.1030261 C478.569,25.5750261 480.349,23.5570261 483.092,23.5570261 C485.859,23.5570261 487.638,25.5750261 487.638,28.1030261 C487.638,30.6310261 485.859,32.6770261 483.092,32.6770261 C480.349,32.6770261 478.569,30.6310261 478.569,28.1030261 Z M477.797,28.1030261 C477.797,30.9440261 479.894,33.3510261 483.092,33.3510261 C486.29,33.3510261 488.41,30.9440261 488.41,28.1030261 C488.41,25.2380261 486.29,22.8830261 483.092,22.8830261 C479.894,22.8830261 477.797,25.2380261 477.797,28.1030261 Z M410.969,37.6380261 L422.55,37.6380261 C422.951,37.6380261 423.267,37.3130261 423.267,36.9190261 L423.267,34.3060261 C423.267,33.9120261 422.951,33.5850261 422.55,33.5850261 L410.969,33.5850261 L410.969,30.2670261 C410.969,27.2400261 411.082,27.1570261 413.824,27.1570261 L422.99,27.1570261 C423.377,27.1570261 423.708,26.8260261 423.708,26.4310261 L423.708,24.1190261 C423.708,23.6110261 423.526,23.4270261 422.99,23.3580261 C421.825,23.1800261 419.472,22.8540209 415.168,22.8540261 C409.152,22.8540261 405.972,22.8120261 405.972,30.2670261 L405.972,41.7160261 C405.972,49.1720261 409.152,49.1310261 415.168,49.1310261 C419.472,49.1310261 421.825,48.8080261 422.99,48.6240261 C423.526,48.5550261 423.708,48.3730261 423.708,47.8630261 L423.708,45.5520261 C423.708,45.1550261 423.377,44.8300261 422.99,44.8300261 L413.824,44.8300261 C411.082,44.8300261 410.969,44.7480261 410.969,41.7160261 L410.969,37.6380261 Z M473.998,41.5850261 C473.998,38.1140261 472.021,36.3190261 468.974,35.0850261 C466.568,34.1180261 464.461,33.2970261 462.854,32.6640261 C461.247,32.0260261 459.889,30.9320261 459.889,29.7400261 C459.889,28.1140261 461.894,27.1720261 464.576,27.1720261 C467.722,27.1720261 470.199,27.6120261 472.589,27.8300261 C472.624,27.8300261 472.659,27.8300261 472.659,27.8300261 C473.027,27.8300261 473.273,27.5360261 473.273,27.1790261 L473.273,24.4990261 C473.273,24.1400261 472.988,23.8850261 472.624,23.8150261 C471.394,23.5210261 468.237,22.8640261 464.788,22.8640261 C458.059,22.8640261 454.855,25.7580261 454.855,29.7400261 C454.855,32.2710261 455.97,34.7650261 459.117,36.0670261 C462.28,37.3700261 468.758,38.8720261 468.758,41.5850261 C468.758,43.6840261 467.773,44.8370261 464.555,44.8370261 C461.21,44.8370261 457.824,44.3630261 456.375,44.1820261 C456.34,44.1820261 456.34,44.1820261 456.303,44.1820261 C455.945,44.1820261 455.615,44.4750261 455.615,44.8710261 L455.615,47.4780261 C455.615,47.8760261 455.945,48.1260261 456.303,48.1970261 C458.039,48.5980261 461.283,49.1490261 464.481,49.1490261 C471.719,49.1490261 473.998,45.2370261 473.998,41.5850261 Z M445.242,31.0290261 C445.242,28.3160261 443.136,27.1570261 439.513,27.1570261 C438.756,27.1570261 435.464,27.2310261 434.812,27.3030261 L434.812,35.1480261 C435.398,35.1850261 438.908,35.2580261 439.513,35.2580261 C443.246,35.2580261 445.242,34.5400261 445.242,31.3580261 L445.242,31.0290261 Z M451.106,48.4120261 C451.106,48.6610261 450.957,48.8440261 450.673,48.8440261 L446.254,48.8440261 C445.855,48.8440261 445.713,48.4770261 445.534,48.1200261 L440.318,39.3460261 L439.513,39.3460261 C438.575,39.3460261 435.648,39.2420261 434.812,39.1990261 L434.812,48.1200261 C434.812,48.5160261 434.526,48.8440261 434.13,48.8440261 L430.514,48.8440261 C430.117,48.8440261 429.789,48.5160261 429.789,48.1200261 L429.789,24.4040261 C429.789,23.6810261 430.22,23.4270261 430.946,23.3200261 C432.825,23.0320261 436.875,22.8540261 439.513,22.8540261 C445.09,22.8540261 450.232,24.8450261 450.232,31.0290261 L450.232,31.3580261 C450.232,35.1880261 448.312,37.2850261 445.347,38.4380261 L451.034,48.1200261 C451.106,48.2290261 451.106,48.3320261 451.106,48.4120261 Z M402.25,26.6880261 L402.25,23.8280261 C402.25,23.4270261 401.925,23.1410261 401.532,23.1410261 L382.052,23.1410261 C381.66,23.1410261 381.333,23.4270261 381.333,23.8280261 L381.333,26.6880261 C381.333,27.0850261 381.66,27.3350261 382.052,27.3350261 L389.276,27.3350261 L389.276,48.1200261 C389.276,48.5160261 389.603,48.8440261 390,48.8440261 L393.583,48.8440261 C393.981,48.8440261 394.314,48.5160261 394.314,48.1200261 L394.314,27.3350261 L401.532,27.3350261 C401.925,27.3350261 402.25,27.0850261 402.25,26.6880261 Z M377.74,38.8880261 L377.74,23.8280261 C377.74,23.4270261 377.414,23.1410261 377.012,23.1410261 L373.43,23.1410261 C373.033,23.1410261 372.709,23.4270261 372.709,23.8280261 L372.709,38.8880261 C372.709,43.0150261 370.804,44.9710261 366.895,44.9710261 C362.993,44.9710261 361.084,43.0150261 361.084,38.8880261 L361.084,23.8280261 C361.084,23.4270261 360.761,23.1410261 360.36,23.1410261 L356.784,23.1410261 C356.387,23.1410261 356.058,23.4270261 356.058,23.8280261 L356.058,38.8880261 C356.058,46.5990261 361.073,49.1310261 366.895,49.1310261 C372.723,49.1310261 377.74,46.5990261 377.74,38.8880261 Z M337.908,37.6380261 L349.49,37.6380261 C349.887,37.6380261 350.214,37.3130261 350.214,36.9190261 L350.214,34.3060261 C350.214,33.9120261 349.887,33.5850261 349.49,33.5850261 L337.908,33.5850261 L337.908,30.2670261 C337.908,27.2400261 338.024,27.1570261 340.761,27.1570261 L349.922,27.1570261 C350.32,27.1570261 350.648,26.8260261 350.648,26.4310261 L350.648,24.1190261 C350.648,23.6110261 350.465,23.4270261 349.922,23.3580261 C348.764,23.1800261 346.407,22.8540261 342.104,22.8540261 C336.097,22.8540261 332.91,22.8120261 332.91,30.2670261 L332.91,41.7160261 C332.91,49.1720261 336.097,49.1310261 342.104,49.1310261 C346.407,49.1310261 348.764,48.8080261 349.922,48.6240261 C350.465,48.5550261 350.648,48.3730261 350.648,47.8630261 L350.648,45.5520261 C350.648,45.1550261 350.32,44.8300261 349.922,44.8300261 L340.761,44.8300261 C338.024,44.8300261 337.908,44.7480261 337.908,41.7160261 L337.908,37.6380261 Z M322.398,31.0290261 C322.398,28.3160261 320.292,27.1570261 316.673,27.1570261 C315.91,27.1570261 312.618,27.2310261 311.972,27.3030261 L311.972,35.1480261 C312.546,35.1850261 316.052,35.2580261 316.673,35.2580261 C320.397,35.2580261 322.398,34.5400261 322.398,31.3580261 L322.398,31.0290261 Z M328.26,48.4120261 C328.26,48.6610261 328.116,48.8440261 327.827,48.8440261 L323.409,48.8440261 C323.013,48.8440261 322.866,48.4770261 322.687,48.1200261 L317.475,39.3460261 L316.673,39.3460261 C315.729,39.3460261 312.805,39.2420261 311.972,39.1990261 L311.972,48.1200261 C311.972,48.5160261 311.68,48.8440261 311.283,48.8440261 L307.662,48.8440261 C307.269,48.8440261 306.942,48.5160261 306.942,48.1200261 L306.942,24.4040261 C306.942,23.6810261 307.37,23.4270261 308.1,23.3200261 C309.983,23.0320261 314.028,22.8540261 316.673,22.8540261 C322.244,22.8540261 327.39,24.8450261 327.39,31.0290261 L327.39,31.3580261 C327.39,35.1880261 325.474,37.2850261 322.509,38.4380261 L328.186,48.1200261 C328.26,48.2290261 328.26,48.3320261 328.26,48.4120261 Z M257.522,34.1410261 C257.522,29.3660261 254.635,27.2310261 251.088,27.2310261 C247.541,27.2310261 244.655,29.3660261 244.655,34.1410261 L244.655,37.8430261 C244.655,42.6190261 247.541,44.7510261 251.088,44.7510261 C254.635,44.7510261 257.522,42.6190261 257.522,37.8430261 L257.522,34.1410261 Z M262.583,34.1410261 L262.583,37.8430261 C262.583,45.8040261 257.057,49.1310261 251.088,49.1310261 C245.119,49.1310261 239.593,45.8040261 239.593,37.8430261 L239.593,34.1410261 C239.593,26.1820261 245.119,22.8540261 251.088,22.8540261 C257.057,22.8540261 262.583,26.1820261 262.583,34.1410261 Z M235.033,41.5850261 C235.033,38.1140261 233.06,36.3190261 230.002,35.0850261 C227.598,34.1180261 225.486,33.2970261 223.878,32.6640261 C222.278,32.0290261 220.915,30.9320261 220.915,29.7400261 C220.915,28.1140261 222.93,27.1720261 225.601,27.1720261 C228.752,27.1720261 231.23,27.6120261 233.62,27.8300261 C233.656,27.8300261 233.656,27.8300261 233.693,27.8300261 C234.053,27.8300261 234.304,27.5360261 234.304,27.1790261 L234.304,24.4990261 C234.304,24.1400261 234.02,23.8850261 233.656,23.8150261 C232.429,23.5210261 229.272,22.8640261 225.821,22.8640261 C219.093,22.8640261 215.885,25.7580261 215.885,29.7400261 C215.885,32.2710261 217,34.7650261 220.154,36.0670261 C223.314,37.3700261 229.784,38.8720261 229.784,41.5850261 C229.784,43.6840261 228.807,44.8370261 225.583,44.8370261 C222.239,44.8370261 218.852,44.3630261 217.404,44.1820261 C217.363,44.1820261 217.363,44.1820261 217.331,44.1820261 C216.971,44.1820261 216.646,44.4750261 216.646,44.8710261 L216.646,47.4780261 C216.646,47.8760261 216.971,48.1260261 217.331,48.1970261 C219.072,48.5980261 222.317,49.1490261 225.511,49.1490261 C232.754,49.1490261 235.033,45.2370261 235.033,41.5850261 Z M290.302,47.3960261 L290.302,23.8280261 C290.302,23.4270261 290.01,23.1410261 289.613,23.1410261 L286.499,23.1410261 C286.097,23.1410261 285.809,23.4270261 285.809,23.8280261 L285.809,41.6780261 C285.809,41.8920261 285.705,42.0060261 285.633,42.0060261 C285.519,42.0060261 285.413,41.8920261 285.345,41.7160261 L275.137,24.3030261 C274.698,23.3580261 274.302,23.1410261 273.543,23.1410261 L269.632,23.1410261 C268.836,23.1410261 268.192,23.7890261 268.192,24.5860261 L268.192,48.1200261 C268.192,48.5160261 268.509,48.8440261 268.915,48.8440261 L271.984,48.8440261 C272.381,48.8440261 272.673,48.5160261 272.673,48.1200261 L272.673,31.1020261 C272.673,30.8870261 272.752,30.8090261 272.856,30.8090261 C272.963,30.8090261 273.075,30.8870261 273.179,31.1020261 L282.997,47.5440261 C283.564,48.8440261 284.327,48.8440261 285.196,48.8440261 L288.856,48.8440261 C289.65,48.8440261 290.302,48.1940261 290.302,47.3960261 Z M209.991,48.3010261 L209.991,24.5860261 C209.991,23.7890261 209.338,23.1410261 208.542,23.1410261 L205.574,23.1410261 C204.997,23.1410261 204.489,23.4990261 204.236,24.0090261 L197.296,38.1440261 C197.11,38.4690261 197.037,38.6500261 196.897,38.6500261 C196.745,38.6500261 196.671,38.4690261 196.492,38.1440261 L189.55,24.0090261 C189.295,23.4990261 188.787,23.1410261 188.213,23.1410261 L185.244,23.1410261 C184.447,23.1410261 183.794,23.7890261 183.794,24.5860261 L183.794,48.3010261 C183.794,48.6610261 184.086,48.8440261 184.415,48.8440261 L188.067,48.8440261 C188.392,48.8440261 188.647,48.4770261 188.647,48.1200261 L188.647,32.4750261 C188.647,32.2220261 188.684,32.1150261 188.756,32.1150261 C188.787,32.1150261 188.862,32.2220261 188.939,32.3300261 L194.82,45.2680261 C195.029,45.6610261 195.501,45.8840261 195.972,45.8840261 L197.855,45.8840261 C198.325,45.8840261 198.793,45.6610261 199.005,45.2680261 L204.847,32.3300261 C204.925,32.2220261 204.997,32.1150261 205.025,32.1150261 C205.104,32.1150261 205.141,32.2220261 205.141,32.4750261 L205.141,48.1200261 C205.141,48.4770261 205.394,48.8440261 205.715,48.8440261 L209.371,48.8440261 C209.699,48.8440261 209.991,48.6610261 209.991,48.3010261 Z M173.124,34.1410261 C173.124,29.3660261 170.24,27.2310261 166.693,27.2310261 C163.148,27.2310261 160.259,29.3660261 160.259,34.1410261 L160.259,37.8430261 C160.259,42.6190261 163.148,44.7510261 166.693,44.7510261 C170.24,44.7510261 173.124,42.6190261 173.124,37.8430261 L173.124,34.1410261 Z M178.196,34.1410261 L178.196,37.8430261 C178.196,45.8040261 172.665,49.1310261 166.693,49.1310261 C160.724,49.1310261 155.198,45.8040261 155.198,37.8430261 L155.198,34.1410261 C155.198,26.1820261 160.724,22.8540261 166.693,22.8540261 C172.665,22.8540261 178.196,26.1820261 178.196,34.1410261 Z M149.484,48.1200261 L149.484,23.8280261 C149.484,23.4270261 149.154,23.1410261 148.76,23.1410261 L145.184,23.1410261 C144.778,23.1410261 144.452,23.4270261 144.452,23.8280261 L144.452,33.2250261 L132.991,33.2250261 L132.991,23.8280261 C132.991,23.4270261 132.663,23.1410261 132.272,23.1410261 L128.69,23.1410261 C128.287,23.1410261 127.964,23.4270261 127.964,23.8280261 L127.964,48.1200261 C127.964,48.5160261 128.287,48.8440261 128.69,48.8440261 L132.272,48.8440261 C132.663,48.8440261 132.991,48.5160261 132.991,48.1200261 L132.991,37.6380261 L144.452,37.6380261 L144.452,48.1200261 C144.452,48.5160261 144.778,48.8440261 145.184,48.8440261 L148.76,48.8440261 C149.154,48.8440261 149.484,48.5160261 149.484,48.1200261 Z M122.653,27.3350261 L115.436,27.3350261 L115.436,48.1200261 C115.436,48.5160261 115.109,48.8440261 114.707,48.8440261 L111.129,48.8440261 C110.731,48.8440261 110.408,48.5160261 110.408,48.1200261 L110.408,27.3350261 L103.181,27.3350261 C102.785,27.3350261 102.456,27.0850261 102.456,26.6880261 L102.456,23.8280261 C102.456,23.4270261 102.785,23.1410261 103.181,23.1410261 L122.653,23.1410261 C123.05,23.1410261 123.378,23.4270261 123.378,23.8280261 L123.378,26.6880261 C123.378,27.0850261 123.05,27.3350261 122.653,27.3350261 L122.653,27.3350261 Z" id="Fill-2" fill="#5F605C"></path>
            </g>
        </g>
    </g>
</svg>