<svg viewBox="0 0 328 81" fill="none" xmlns="http://www.w3.org/2000/svg">
<path d="M321.451 67.221V47.797C321.451 46.271 321.243 44.965 320.827 43.878C320.411 42.792 319.856 41.913 319.162 41.242C318.484 40.582 317.666 40.0838 316.769 39.785C315.863 39.484 314.914 39.3317 313.959 39.334C312.664 39.334 311.462 39.542 310.352 39.958C309.238 40.3777 308.24 41.0552 307.438 41.935C306.606 42.837 305.958 43.982 305.496 45.369C305.033 46.757 304.802 48.399 304.802 50.294V67.221H298.559V34.339H304.802V39.403H304.941C305.727 37.646 307.092 36.224 309.034 35.137C310.976 34.051 313.219 33.507 315.763 33.507C317.334 33.507 318.85 33.75 320.307 34.235C321.728 34.7001 323.03 35.4697 324.122 36.49C325.208 37.508 326.075 38.814 326.723 40.409C327.37 42.005 327.694 43.89 327.694 46.063V67.221H321.451ZM287.253 27.125C286.004 27.125 284.929 26.674 284.027 25.772C283.125 24.871 282.674 23.795 282.674 22.547C282.674 21.298 283.125 20.223 284.027 19.321C284.929 18.419 286.004 17.968 287.253 17.968C288.501 17.968 289.577 18.419 290.478 19.321C291.38 20.223 291.831 21.298 291.831 22.547C291.831 23.795 291.38 24.871 290.478 25.772C289.577 26.674 288.501 27.125 287.253 27.125ZM263.044 67.221L254.335 42.664H254.195L246.256 67.221H239.597L228.775 34.339H235.781L243.167 58.896H243.307L251.181 34.339H257.841L266.165 58.896H266.304L273.31 34.339H279.97L269.356 67.221H263.044ZM221.561 63.024C219.988 64.574 218.138 65.798 216.011 66.7C213.884 67.602 211.594 68.053 209.144 68.053C206.692 68.053 204.403 67.602 202.276 66.7C200.148 65.798 198.298 64.574 196.727 63.024C195.154 61.475 193.917 59.648 193.015 57.544C192.114 55.44 191.663 53.185 191.663 50.78C191.663 48.376 192.114 46.132 193.015 44.051C193.893 42.0053 195.153 40.1454 196.727 38.571C198.298 36.999 200.148 35.762 202.276 34.86C204.403 33.958 206.692 33.507 209.144 33.507C211.594 33.507 213.884 33.958 216.011 34.86C218.138 35.762 219.988 36.999 221.561 38.571C223.134 40.1457 224.394 42.0055 225.272 44.051C226.174 46.132 226.625 48.376 226.625 50.78C226.625 53.185 226.174 55.44 225.272 57.544C224.37 59.648 223.133 61.475 221.561 63.024ZM219.202 46.167C218.693 44.757 217.976 43.555 217.052 42.56C216.126 41.566 214.994 40.78 213.653 40.201C212.311 39.623 210.809 39.334 209.144 39.334C207.479 39.334 205.975 39.623 204.635 40.201C203.293 40.78 202.16 41.566 201.236 42.56C200.31 43.555 199.593 44.757 199.085 46.167C198.576 47.578 198.322 49.115 198.322 50.78C198.322 52.445 198.576 53.983 199.085 55.393C199.593 56.804 200.31 58.006 201.236 59C202.16 59.995 203.293 60.781 204.635 61.359C205.975 61.938 207.479 62.226 209.144 62.226C210.809 62.226 212.311 61.938 213.653 61.359C214.994 60.781 216.126 59.995 217.052 59C217.976 58.006 218.693 56.804 219.202 55.393C219.711 53.983 219.965 52.445 219.965 50.78C219.965 49.115 219.711 47.578 219.202 46.167ZM162.076 56.989C162.686 58.1501 163.523 59.1762 164.539 60.006C165.556 60.839 166.735 61.487 168.077 61.948C169.418 62.411 170.805 62.642 172.239 62.642C174.181 62.642 175.869 62.191 177.303 61.289C178.736 60.388 180.054 59.198 181.257 57.717L185.974 61.324C182.506 65.81 177.65 68.053 171.407 68.053C168.816 68.053 166.469 67.613 164.366 66.735C162.261 65.857 160.481 64.643 159.024 63.093C157.567 61.544 156.446 59.718 155.66 57.613C154.873 55.509 154.481 53.232 154.481 50.78C154.481 48.329 154.908 46.052 155.764 43.947C156.619 41.843 157.798 40.017 159.302 38.467C160.804 36.918 162.597 35.704 164.678 34.825C166.759 33.947 169.024 33.507 171.476 33.507C174.39 33.507 176.852 34.016 178.864 35.033C180.876 36.051 182.529 37.381 183.824 39.022C185.119 40.6669 186.074 42.5533 186.633 44.571C187.211 46.63 187.5 48.723 187.5 50.849V53.069H161.14C161.14 54.503 161.452 55.809 162.076 56.989ZM180.841 48.075C180.794 46.687 180.574 45.416 180.182 44.259C179.81 43.1406 179.207 42.1128 178.413 41.242C177.626 40.386 176.644 39.716 175.465 39.23C174.285 38.744 172.909 38.502 171.337 38.502C169.811 38.502 168.412 38.791 167.14 39.369C165.868 39.948 164.793 40.699 163.915 41.623C163.054 42.5218 162.361 43.5673 161.868 44.71C161.383 45.844 161.14 46.965 161.14 48.075H180.841ZM111.333 26.848H111.195V67.221H104.535V18.107H113.276L140.33 58.48H140.469V18.107H147.128V67.221H138.665L111.333 26.848ZM290.374 67.221H284.131V34.339H290.374V67.221ZM81.017 40.996C81.0308 49.9854 78.0034 58.7152 72.427 65.766C72.417 65.761 74.8389 53.301 74.8409 40.876C74.8419 28.524 72.423 16.207 72.421 16.196C77.814 23.013 81.017 31.628 81.017 40.996ZM16.8281 9.11798C23.7847 3.84244 32.2763 0.987863 41.0071 0.989961C52.2791 0.989961 62.464 5.65497 69.735 13.151C69.735 13.151 75.7851 78.968 16.8281 9.11798ZM63.3431 74.192C56.7447 78.6412 48.9653 81.0127 41.0071 81.001C29.1681 81.001 18.5351 75.867 11.2061 67.69C11.2061 67.69 6.56208 -0.978981 63.3431 74.192ZM0.996033 40.996C0.996033 32.617 3.55008 24.847 7.84308 18.375C7.84408 18.373 5.83105 29.624 5.83105 40.883C5.83105 52.13 7.84503 63.386 7.84503 63.386C3.54803 57.029 0.996033 48.872 0.996033 40.996Z" fill="#1E5078"/>
</svg>
