<svg version="1.1" id="Layer_1" xmlns="http://www.w3.org/2000/svg" xmlns:xlink="http://www.w3.org/1999/xlink" x="0px" y="0px"
	 width="261.111px" height="81.012px" viewBox="0 0 261.111 81.012" enable-background="new 0 0 261.111 81.012"
	 xml:space="preserve">
<path fill="#F9BB2B" d="M209.621,23.771c-25.972,16.462-65.292-0.722-94.249,8.942c-5.435,3.574-10.731,8.302-15.854,14.52
	c41.809-27.316,112.272,19.354,142.012-36.99C231.34,18.573,220.614,22.323,209.621,23.771z"/>
<path fill="#6EBE44" d="M193.301,17.011c-20.094,10.125-48.508-0.7-70.655,4.735c-5.963,3.188-11.751,7.85-17.294,14.581
	c35.27-23.047,94.717,16.328,119.8-31.205C215.038,13.39,204.297,16.311,193.301,17.011z"/>
<path fill="#1B9AD6" d="M111.183,25.419C139.915,6.646,188.339,38.72,208.772,0C178.141,25.043,140.454-10.12,111.183,25.419"/>
<path fill="#393A3D" d="M0,75.436c0.254-3.635,0.486-8.326,0.695-14.074c0.208-5.746,0.312-10.21,0.312-13.388
	c2.979,0.013,5.774,0.021,8.39,0.021l7.342-0.021c-0.053,0.536-0.079,1.012-0.079,1.429l-1.61-0.135
	c-0.417-0.045-1.142-0.068-2.173-0.077c-1.034-0.006-2.046-0.011-3.038-0.011c-3.179,0-5.593,0.007-7.241,0.021L2.188,60.749
	c2.025,0.038,3.884,0.06,5.575,0.06c2.013,0,4.492-0.021,7.444-0.06c-0.053,0.399-0.089,0.845-0.102,1.327l-7.59-0.063
	c-0.888,0-2.686,0.021-5.396,0.063L1.718,74.168l5.771,0.02c2.266,0,3.837-0.01,4.716-0.027c0.877-0.021,2.073-0.07,3.59-0.15
	c-0.066,0.535-0.102,1.012-0.102,1.428c-3.218-0.014-5.573-0.02-7.063-0.02L0,75.436z"/>
<path fill="#393A3D" d="M21.427,81.012l0.362-7.125l0.361-12.07h-2.554c0.054-0.358,0.087-0.732,0.101-1.124h2.482
	c0.068-1.943,0.125-3.085,0.167-3.423c0.078-0.709,0.2-1.271,0.36-1.68c0.162-0.408,0.368-0.759,0.625-1.055
	c0.255-0.299,0.596-0.566,1.018-0.814c0.424-0.249,0.917-0.439,1.479-0.576c0.564-0.133,1.212-0.201,1.952-0.201
	c0.43,0,0.869,0.028,1.319,0.082c0.447,0.055,1.063,0.16,1.841,0.322c0.027,0.402,0.089,0.865,0.183,1.389
	c-1.262-0.441-2.407-0.662-3.439-0.662c-0.577,0-1.098,0.076-1.561,0.229c-0.464,0.153-0.835,0.339-1.116,0.554
	c-0.281,0.216-0.521,0.49-0.715,0.826c-0.193,0.332-0.34,0.702-0.433,1.104c-0.094,0.4-0.162,1-0.201,1.791
	c0,0.162-0.02,0.863-0.053,2.112h5.987c-0.055,0.349-0.089,0.727-0.103,1.124h-5.935l-0.46,19.195
	c-0.351-0.014-0.633-0.02-0.848-0.02C22.05,80.992,21.775,80.998,21.427,81.012z"/>
<path fill="#393A3D" d="M31.746,81.012l0.363-7.125l0.36-12.07h-2.554c0.054-0.358,0.087-0.732,0.103-1.124H32.5
	c0.068-1.943,0.125-3.085,0.166-3.423c0.081-0.709,0.201-1.271,0.361-1.68c0.163-0.408,0.371-0.759,0.626-1.055
	c0.254-0.299,0.594-0.566,1.018-0.814c0.421-0.249,0.915-0.439,1.48-0.576c0.563-0.133,1.216-0.201,1.953-0.201
	c0.429,0,0.869,0.028,1.317,0.082c0.449,0.055,1.063,0.16,1.843,0.322c0.026,0.402,0.089,0.865,0.182,1.389
	c-1.26-0.441-2.406-0.662-3.439-0.662c-0.576,0-1.096,0.076-1.561,0.229c-0.462,0.153-0.835,0.339-1.116,0.554
	c-0.281,0.216-0.52,0.49-0.714,0.826c-0.195,0.332-0.338,0.702-0.432,1.104c-0.097,0.4-0.162,1-0.202,1.791
	c0,0.162-0.019,0.863-0.053,2.112h5.987c-0.053,0.349-0.088,0.727-0.101,1.124H33.88l-0.461,19.195
	c-0.348-0.014-0.63-0.02-0.845-0.02C32.372,80.992,32.097,80.998,31.746,81.012z"/>
<path fill="#393A3D" d="M51.081,54.692c1.248,0,2.454,0.178,3.623,0.523c1.167,0.349,2.195,0.942,3.088,1.779
	c0.893,0.839,1.572,1.936,2.042,3.29c0.471,1.354,0.703,2.79,0.703,4.305c0,1.637-0.249,3.207-0.744,4.71
	c-0.497,1.502-1.201,2.759-2.111,3.771c-0.911,1.013-1.981,1.727-3.209,2.145c-1.228,0.416-2.532,0.625-3.913,0.625
	c-0.964,0-1.914-0.112-2.847-0.336c-0.933-0.22-1.805-0.592-2.614-1.115c-0.813-0.521-1.522-1.199-2.135-2.032
	c-0.609-0.833-1.072-1.813-1.388-2.957c-0.317-1.138-0.473-2.324-0.473-3.562c0-2.159,0.399-4.133,1.206-5.924
	c0.806-1.792,2.009-3.109,3.61-3.954C47.523,55.115,49.245,54.692,51.081,54.692z M51.042,55.819c-1.596,0-3.078,0.392-4.445,1.165
	c-1.369,0.779-2.374,1.965-3.02,3.561c-0.643,1.594-0.965,3.343-0.965,5.243c0,1.341,0.184,2.601,0.554,3.777
	c0.368,1.183,0.962,2.177,1.779,2.985s1.699,1.373,2.646,1.688c0.945,0.313,1.941,0.474,2.988,0.474
	c1.194,0,2.314-0.192,3.361-0.584c1.045-0.387,1.967-1.037,2.765-1.947c0.799-0.912,1.385-2.031,1.762-3.355
	c0.374-1.326,0.563-2.732,0.563-4.223c0-1.379-0.184-2.677-0.553-3.889c-0.368-1.211-0.942-2.187-1.722-2.915
	c-0.776-0.729-1.664-1.241-2.654-1.535C53.107,55.967,52.089,55.819,51.042,55.819z"/>
<path fill="#393A3D" d="M64.823,75.436c0.161-2.83,0.315-6.154,0.463-9.979c0.147-3.82,0.22-6.665,0.22-8.528l-0.019-1.812
	c0.268,0.015,0.517,0.021,0.744,0.021c0.242,0,0.49-0.007,0.746-0.021l-0.182,3.803c0.455-0.912,0.879-1.604,1.27-2.072
	c0.388-0.469,0.84-0.864,1.354-1.178c0.519-0.315,1.12-0.558,1.813-0.727c0.688-0.166,1.413-0.251,2.163-0.251
	c0.55,0,1.104,0.067,1.671,0.202c0,0.455,0.024,0.912,0.078,1.368c-0.897-0.229-1.678-0.344-2.333-0.344
	c-0.646,0-1.228,0.089-1.742,0.262c-0.52,0.175-1.001,0.43-1.45,0.765c-0.449,0.338-0.888,0.798-1.319,1.38
	c-0.429,0.58-0.751,1.205-0.965,1.86c-0.269,0.767-0.448,1.696-0.544,2.797c-0.142,1.716-0.231,3.678-0.271,5.874
	c-0.053,2.964-0.077,5.159-0.077,6.579c-0.353-0.014-0.619-0.02-0.809-0.02C65.443,75.416,65.173,75.422,64.823,75.436z"/>
<path fill="#393A3D" d="M86.089,74.168c-0.106,0.4-0.188,0.824-0.24,1.268c-1.09,0.27-2.084,0.404-2.997,0.404
	c-0.768,0-1.447-0.086-2.042-0.256c-0.6-0.166-1.084-0.467-1.458-0.903c-0.376-0.435-0.625-0.919-0.746-1.448
	c-0.119-0.527-0.184-1.096-0.184-1.697c0-0.108,0.005-0.275,0.014-0.504c0.005-0.229,0.027-0.73,0.068-1.512L79.177,56.2h-2.482
	c0.054-0.362,0.089-0.725,0.102-1.085h2.457c0.069-0.848,0.125-2.106,0.166-3.781c0.508-0.068,0.947-0.156,1.321-0.262
	c-0.095,2.172-0.142,3.52-0.142,4.043h6.034c-0.053,0.36-0.086,0.723-0.1,1.085h-6.005l-0.659,13.79l-0.02,0.819
	c0,1.127,0.13,1.944,0.393,2.454c0.261,0.508,0.63,0.876,1.107,1.104c0.477,0.228,0.97,0.342,1.479,0.342
	c0.362,0,0.748-0.03,1.158-0.086C84.394,74.564,85.096,74.415,86.089,74.168z"/>
<path fill="#393A3D" d="M89.267,75.436c0.615-11.186,0.979-20.341,1.085-27.462c0.348,0.013,0.625,0.021,0.825,0.021
	s0.477-0.008,0.825-0.021l-0.509,9.798l-0.577,17.664c-0.35-0.014-0.624-0.02-0.825-0.02C89.892,75.416,89.616,75.422,89.267,75.436
	z"/>
<path fill="#393A3D" d="M112.164,73.443c-0.106,0.507-0.188,1.017-0.242,1.529c-1.11,0.322-2.11,0.545-2.998,0.674
	c-0.884,0.128-1.79,0.193-2.715,0.193c-1.609,0-3.036-0.219-4.275-0.655c-1.24-0.435-2.304-1.159-3.188-2.171
	s-1.516-2.146-1.891-3.407c-0.377-1.258-0.563-2.599-0.563-4.019c0-1.864,0.322-3.609,0.965-5.237
	c0.646-1.628,1.704-2.979,3.181-4.05c1.475-1.071,3.306-1.608,5.494-1.608c1.5,0,2.859,0.28,4.083,0.835
	c1.22,0.558,2.169,1.468,2.846,2.729c0.677,1.26,1.016,2.756,1.016,4.486c0,0.32-0.013,0.631-0.04,0.926L97.9,63.686
	c-0.066,0.872-0.102,1.526-0.102,1.972c0,1.271,0.188,2.504,0.564,3.693c0.376,1.191,0.943,2.188,1.703,2.992
	c0.758,0.804,1.667,1.398,2.729,1.787c1.063,0.39,2.185,0.582,3.364,0.582C107.959,74.711,109.959,74.29,112.164,73.443z
	 M98.08,62.58l14.325,0.02c-0.013-0.926-0.068-1.637-0.161-2.132c-0.095-0.497-0.27-1.007-0.525-1.53
	c-0.255-0.521-0.56-0.976-0.914-1.356c-0.356-0.383-0.772-0.702-1.25-0.964c-0.478-0.266-1.012-0.461-1.604-0.599
	c-0.59-0.132-1.208-0.199-1.853-0.199c-0.712,0-1.411,0.079-2.097,0.242c-0.686,0.159-1.311,0.381-1.875,0.663
	c-0.563,0.281-1.092,0.643-1.582,1.077c-0.488,0.435-0.892,0.908-1.208,1.419c-0.314,0.51-0.557,0.994-0.726,1.457
	C98.445,61.141,98.267,61.773,98.08,62.58z"/>
<path fill="#393A3D" d="M116.389,75.033c-0.027-0.646-0.082-1.215-0.162-1.71c1.06,0.472,2.059,0.798,2.998,0.983
	c0.938,0.188,1.798,0.283,2.575,0.283c1.031,0,1.914-0.148,2.646-0.443c0.733-0.293,1.285-0.729,1.661-1.305
	c0.376-0.578,0.563-1.182,0.563-1.811c0-0.283-0.03-0.555-0.091-0.814c-0.06-0.262-0.157-0.521-0.291-0.785
	c-0.135-0.262-0.286-0.502-0.454-0.723c-0.167-0.222-0.401-0.472-0.705-0.754c-0.302-0.281-0.652-0.599-1.056-0.943
	c-0.402-0.35-1.033-0.879-1.889-1.588c-0.861-0.711-1.568-1.323-2.124-1.84c-0.56-0.518-1.021-1.039-1.391-1.568
	c-0.367-0.529-0.631-1.014-0.785-1.457c-0.152-0.441-0.231-0.889-0.231-1.345c0-0.78,0.247-1.532,0.735-2.261
	c0.488-0.734,1.191-1.291,2.112-1.683c0.917-0.388,2.082-0.582,3.491-0.582c1.18,0,2.507,0.154,3.982,0.464
	c0.013,0.592,0.054,1.158,0.123,1.71c-0.859-0.361-1.628-0.604-2.306-0.733c-0.679-0.127-1.365-0.19-2.063-0.19
	c-0.871,0-1.678,0.13-2.415,0.394c-0.737,0.262-1.291,0.645-1.658,1.146c-0.371,0.502-0.554,1.049-0.554,1.641
	c0,0.317,0.04,0.622,0.121,0.901c0.082,0.283,0.209,0.564,0.382,0.854c0.175,0.288,0.398,0.584,0.675,0.884
	c0.275,0.303,0.629,0.651,1.064,1.045c0.438,0.397,1.066,0.939,1.892,1.631c0.826,0.689,1.438,1.212,1.841,1.566
	c0.403,0.354,0.749,0.68,1.038,0.974c0.288,0.296,0.563,0.62,0.824,0.977c0.262,0.354,0.474,0.698,0.634,1.033
	c0.162,0.336,0.283,0.675,0.363,1.017c0.081,0.344,0.122,0.688,0.122,1.035c0,0.846-0.25,1.644-0.746,2.395
	c-0.495,0.75-1.216,1.338-2.162,1.769c-0.945,0.429-2.082,0.646-3.41,0.646c-0.496,0-1.118-0.043-1.861-0.123
	c-0.742-0.08-1.34-0.165-1.792-0.251C117.639,75.379,117.072,75.234,116.389,75.033z"/>
<path fill="#393A3D" d="M131.195,75.033c-0.026-0.646-0.079-1.215-0.159-1.71c1.061,0.472,2.057,0.798,2.997,0.983
	c0.938,0.188,1.798,0.283,2.576,0.283c1.03,0,1.913-0.148,2.644-0.443c0.731-0.293,1.285-0.729,1.66-1.305
	c0.376-0.578,0.564-1.182,0.564-1.811c0-0.283-0.031-0.555-0.094-0.814c-0.061-0.261-0.154-0.521-0.29-0.785
	c-0.136-0.262-0.283-0.502-0.452-0.723c-0.168-0.222-0.402-0.472-0.705-0.754c-0.303-0.281-0.652-0.599-1.058-0.943
	c-0.399-0.35-1.031-0.879-1.89-1.588c-0.859-0.711-1.566-1.323-2.123-1.84c-0.557-0.518-1.02-1.039-1.388-1.568
	c-0.37-0.529-0.632-1.014-0.786-1.457c-0.154-0.441-0.232-0.889-0.232-1.345c0-0.78,0.246-1.532,0.736-2.261
	c0.488-0.734,1.193-1.291,2.113-1.683c0.918-0.388,2.08-0.582,3.488-0.582c1.182,0,2.51,0.154,3.982,0.464
	c0.014,0.592,0.053,1.158,0.121,1.71c-0.859-0.361-1.626-0.604-2.305-0.733c-0.679-0.127-1.364-0.19-2.063-0.19
	c-0.871,0-1.678,0.13-2.415,0.394c-0.739,0.262-1.291,0.645-1.659,1.146c-0.369,0.502-0.553,1.049-0.553,1.641
	c0,0.317,0.039,0.622,0.12,0.901c0.079,0.283,0.208,0.564,0.382,0.854c0.174,0.288,0.396,0.584,0.674,0.884
	c0.275,0.303,0.629,0.651,1.066,1.045c0.436,0.397,1.063,0.939,1.891,1.631c0.824,0.689,1.439,1.212,1.841,1.566
	c0.403,0.354,0.749,0.68,1.038,0.974c0.287,0.296,0.563,0.62,0.823,0.977c0.262,0.354,0.475,0.698,0.634,1.033
	c0.162,0.336,0.281,0.675,0.363,1.017c0.08,0.344,0.12,0.688,0.12,1.035c0,0.846-0.249,1.644-0.745,2.395
	c-0.496,0.75-1.217,1.338-2.164,1.769c-0.942,0.429-2.08,0.646-3.408,0.646c-0.496,0-1.116-0.043-1.859-0.123
	s-1.342-0.165-1.791-0.251C132.447,75.379,131.88,75.234,131.195,75.033z"/>
<g>
	<path fill="#393A3D" d="M164.551,72.793h-0.083c-1.38,1.842-3.892,3.014-6.65,3.014c-6.651,0-10.503-5.438-10.503-10.668
		c0-4.979,4.143-10.671,10.711-10.671c3.014,0,5.313,1.298,6.442,3.015h0.083v-2.469h4.354v20.248h-4.354V72.793L164.551,72.793z
		 M158.359,71.707c3.431,0,6.358-2.933,6.358-6.568c0-3.643-2.93-6.572-6.358-6.572c-3.513,0-6.442,2.932-6.442,6.572
		C151.917,68.776,154.846,71.707,158.359,71.707z"/>
	<path fill="#393A3D" d="M190.155,72.793h-0.084c-1.379,1.842-3.891,3.014-6.652,3.014c-6.65,0-10.5-5.438-10.5-10.668
		c0-4.979,4.144-10.671,10.71-10.671c3.015,0,5.313,1.298,6.442,3.015h0.084v-8.495h4.352v26.274h-4.352V72.793L190.155,72.793z
		 M183.963,71.707c3.434,0,6.359-2.933,6.359-6.568c0-3.643-2.928-6.572-6.359-6.572c-3.516,0-6.441,2.932-6.441,6.572
		C177.52,68.776,180.448,71.707,183.963,71.707z"/>
	<path fill="#393A3D" d="M200.028,62.584c0-5.146,3.431-8.116,7.404-8.116c3.055,0,5.271,1.464,6.067,3.599h0.081
		c0.797-2.135,3.014-3.599,6.068-3.599c3.975,0,7.406,2.972,7.406,8.116v12.678h-4.354V62.628c0-2.429-1.548-3.81-3.347-3.81
		c-2.093,0-3.643,1.256-3.643,4.395v12.049h-4.352V63.213c0-3.139-1.549-4.395-3.64-4.395c-1.8,0-3.349,1.381-3.349,3.81v12.634
		h-4.352V62.584H200.028z"/>
	<path fill="#393A3D" d="M234.836,48.442c1.34,0,2.429,1.087,2.429,2.43c0,1.339-1.089,2.427-2.429,2.427
		c-1.339,0-2.427-1.088-2.427-2.427C232.41,49.529,233.498,48.442,234.836,48.442z M232.66,55.014h4.351v20.248h-4.351V55.014z"/>
	<path fill="#393A3D" d="M242.618,55.014h4.351v2.551h0.083c1.217-1.883,3.434-3.097,6.193-3.097c4.266,0,7.866,3.558,7.866,8.577
		v12.217h-4.354V64.008c0-3.683-1.925-5.188-4.811-5.188c-2.804,0-4.98,1.801-4.98,5.104v11.337h-4.351L242.618,55.014
		L242.618,55.014z"/>
</g>
<g>
	<path fill="#39393C" d="M234.038,29.546v0.361h-1.025v2.81h-0.43v-2.81h-1.028v-0.361H234.038z"/>
	<path fill="#39393C" d="M236.103,31.682c0.015,0.04,0.03,0.079,0.045,0.119c0.015-0.041,0.03-0.081,0.047-0.119
		c0.016-0.038,0.034-0.075,0.055-0.114l1.073-1.95c0.02-0.034,0.039-0.054,0.061-0.062c0.02-0.007,0.05-0.011,0.088-0.011h0.316
		v3.171h-0.376v-2.33c0-0.031,0.001-0.065,0.003-0.1c0.001-0.036,0.003-0.071,0.006-0.108l-1.086,1.982
		c-0.038,0.066-0.089,0.1-0.155,0.1h-0.062c-0.066,0-0.118-0.034-0.156-0.1l-1.109-1.989c0.004,0.039,0.007,0.076,0.01,0.113
		c0.002,0.036,0.002,0.071,0.002,0.102v2.33h-0.375v-3.171h0.316c0.038,0,0.068,0.004,0.088,0.011
		c0.021,0.007,0.041,0.028,0.061,0.062l1.096,1.952C236.069,31.606,236.087,31.643,236.103,31.682z"/>
</g>
</svg>
