<?xml version="1.0" encoding="utf-8"?>
<!-- Generator: Adobe Illustrator 25.0.0, SVG Export Plug-In . SVG Version: 6.00 Build 0)  -->
<svg version="1.1" id="Layer_1"
  xmlns="http://www.w3.org/2000/svg"
  xmlns:xlink="http://www.w3.org/1999/xlink" x="0px" y="0px" viewBox="0 0 305.1 147.1" style="enable-background:new 0 0 305.1 147.1;" xml:space="preserve">
  <style type="text/css">
	.st0{fill:#D2A565;}
	.st1{fill:#484323;}
  </style>
  <g>
    <g>
      <path class="st0" d="M3.1,87.3c0-16.9,13.1-27.4,28.2-27.4c14.4,0,26.6,9.2,26.6,26.6c0,17.2-12.5,27.5-28.1,27.5
			S3.1,104.2,3.1,87.3z M31.3,111.3c13.3,0,18.3-11.4,18.3-22.9c0-14.8-7.4-26-19.7-26c-11.8,0-18.7,9.8-18.7,23.4
			C11.4,101.8,19.5,111.3,31.3,111.3z"/>
      <path class="st0" d="M67,111.3l2.3-0.2c2.5-0.3,2.5-0.6,2.5-8.4V80.4c0-7.8,0-8.1-2.5-8.4L67,71.8v-1.4h15.6v1.4L80.3,72
			c-2.5,0.3-2.5,0.6-2.5,8.4v29.7c2.3,0.4,4.7,0.8,7,0.8c9.5,0,10.1-3.8,11.4-9.1l1.6,0.3c-0.2,4.1-1,7.1-2.1,10.6H67.1v-1.4H67z"/>
      <path class="st0" d="M107.9,111.3l2.8-0.2c3.1-0.1,3.1-1.9,3.1-3.9V99c0-2.3-1.5-5.2-2.9-7.9l-8.5-15.9c-0.9-1.7-1.7-2.9-3.4-3.1
			l-1.9-0.2v-1.4h16.3v1.4l-2.4,0.2c-1,0.1-2.9,0.3-2.9,1.6c0,1.4,8.5,16.9,10.2,19.6c1.6-2.6,9.7-18.2,9.7-19.2
			c0-1.3-1.3-1.6-2.5-1.8l-2.9-0.4v-1.4h13.8v1.4l-1.7,0.4c-0.7,0.1-1.4,0.5-1.9,1c-2.6,2.4-4.7,6.3-7.9,12.4l-2.9,5.4
			c-1.5,2.7-2.3,5.4-2.3,7.9v8.2c0,2,0,3.8,3.1,3.9l2.8,0.2v1.4h-17.7V111.3z"/>
      <path class="st0" d="M140,111.3l1.6-0.4c1-0.2,1.6-0.4,2-0.8c0.6-0.6,1.1-4.7,1.5-10.6l1-16.1c0.3-4.4,0.7-11.3,0.7-13l1.7-0.6
			c1.9,3.3,16.5,30.9,18.5,34.4c2-3.3,16.4-30.6,17.6-33.9l1.7-0.6c0,0.5,0.4,7.7,0.9,16.1l0.6,11.1c0.3,5.4,0.7,11.6,1.2,12.6
			c0.3,0.6,1.3,1,2.4,1.2l1.9,0.4v1.4h-16.4v-1.4l2.5-0.4c2.8-0.3,3-1.3,3-4.3c0-7.1-1.1-20.5-1.1-24.6h-0.1
			c-1.1,2.8-7.6,15.4-14,27.8c-0.3,0.6-0.6,1.4-0.9,2l-1.8,0.8c-1.4-2.9-9.5-18.6-14-27c-0.6-1.2-1.2-2.4-1.7-3.7h-0.1
			c-0.2,3.6-1.1,21.8-1.1,23.7c0,3.8,0,4.9,3,5.2l2.6,0.4v1.4H140L140,111.3L140,111.3z"/>
      <path class="st0" d="M201.3,111.3l2.3-0.2c2.5-0.3,2.5-0.6,2.5-8.4V80.4c0-7.8,0-8.1-2.5-8.4l-2.3-0.2v-1.4H218
			c6.1,0,15.6,1,15.6,11.5c0,8.7-9.7,12.7-15.7,12.7h-1.1v-1.2c2.8,0,10.1-1.3,10.1-10.9c0-7.5-5.1-9.8-10.8-9.8
			c-1.3,0-2.7,0.3-4,0.5v29.6c0,7.8,0,8.1,3.5,8.4l2.3,0.2v1.4h-16.6V111.3z"/>
      <path class="st0" d="M241.1,111.3l2.3-0.2c2.5-0.3,2.5-0.6,2.5-8.4V80.4c0-7.8,0-8.1-2.5-8.4l-2.3-0.2v-1.4h15.6v1.4l-2.3,0.2
			c-2.5,0.3-2.5,0.6-2.5,8.4v22.3c0,7.8,0,8.1,2.5,8.4l2.3,0.2v1.4h-15.6V111.3z"/>
      <path class="st0" d="M261.9,111.3l1.2-0.2c2.4-0.4,2.8-1.1,4.3-4.8l13.3-32.4c0.5-1.3,1-2.6,1.5-3.8l1.9-0.6l14.3,37.1
			c1,2.6,1.6,4,3.3,4.4l2.6,0.4v1.4h-15.9v-1.4l2.9-0.5c1.2-0.2,2-0.5,2-1.2c0-0.4-0.3-0.9-0.4-1.3l-4.5-12.1
			c-2.4-0.4-4.7-0.6-7.1-0.6c-2.2,0-4.5,0.3-6.7,0.6l-3.3,8.9c-0.8,2-1.3,3.8-1.3,4.3c0,1.2,0.8,1.4,1.5,1.5l3.8,0.5v1.4h-13.4
			V111.3z M275.3,93.7c1.9-0.1,3.9-0.3,5.8-0.3c2,0,4.1,0.1,6.1,0.3l-5.9-15.5L275.3,93.7z"/>
    </g>
    <g>
      <path class="st1" d="M20.3,129.6v17.1h-2.7v-17.1h-6.2v-2.4h14.9l0.4,2.4H20.3z"/>
      <path class="st1" d="M46.4,146.9l-6-8.4h-2v8.2h-2.7v-19.5H41c4,0,6.5,2,6.5,5.5c0,3-1.7,4.7-4.3,5.4l5.8,8.2L46.4,146.9z
			 M40.9,129.6h-2.5v6.7h2.3c2.6,0,4.2-1.2,4.2-3.4C44.9,130.8,43.5,129.6,40.9,129.6z"/>
      <path class="st1" d="M65.2,147.1c-4.7,0-7.6-3-7.6-7.8v-12.1h2.7V139c0,3.4,1.5,5.7,4.9,5.7c3.3,0,5-2,5-5.6v-11.9h2.7v12
			C72.8,144.1,69.9,147.1,65.2,147.1z"/>
      <path class="st1" d="M87.9,147c-2.1,0-4-0.5-5.5-1.3l0.4-2.7c1.3,0.9,3.2,1.7,5.1,1.7c2,0,3.5-1.1,3.5-3c0-1.8-0.8-2.5-3.7-3.8
			c-3.7-1.7-5.1-2.9-5.1-5.7c0-3.1,2.4-5.2,5.9-5.2c1.9,0,3.3,0.5,4.4,1.1l-0.4,2.7c-1.1-0.8-2.5-1.4-4.1-1.4
			c-2.2,0-3.2,1.2-3.2,2.6c0,1.5,0.7,2.2,3.7,3.6c3.8,1.7,5.1,3,5.1,6C94,144.8,91.5,147,87.9,147z"/>
      <path class="st1" d="M110.8,129.6v17.1h-2.7v-17.1h-6.2v-2.4h14.9l0.4,2.4H110.8z"/>
      <path class="st1" d="M144.4,147.1c-5.5,0-9-4.1-9-10.1c0-6.1,3.6-10.2,9.1-10.2c2.3,0,4,0.6,5.5,1.6l-0.4,2.7
			c-1.4-1.1-3.1-1.9-5.2-1.9c-4,0-6.3,3-6.3,7.7s2.4,7.7,6.3,7.7c2.1,0,3.9-0.8,5.5-2l0.4,2.5C148.8,146.3,146.6,147.1,144.4,147.1z
			"/>
      <path class="st1" d="M167.5,147.1c-5.5,0-9-4.1-9-10.1c0-6.1,3.5-10.2,9-10.2s9,4.1,9,10.1C176.6,143,173.1,147.1,167.5,147.1z
			 M167.6,129.3c-3.9,0-6.3,3-6.3,7.7s2.4,7.7,6.3,7.7s6.3-3,6.3-7.7C173.8,132.3,171.4,129.3,167.6,129.3z"/>
      <path class="st1" d="M205.2,146.7l-1.2-15.5l-6.2,15.6h-2l-6.2-15.6l-1.2,15.5h-2.5l1.6-19.5h3.3l6.1,16l6.1-16h3.3l1.5,19.5
			H205.2z"/>
      <path class="st1" d="M222.6,138.8h-2.1v7.9h-2.7v-19.5h5.2c4.1,0,6.6,2,6.6,5.6C229.6,136.8,226.8,138.8,222.6,138.8z
			 M222.9,129.6h-2.4v6.9h2.2c2.7,0,4.2-1.1,4.2-3.5C227,130.7,225.5,129.6,222.9,129.6z"/>
      <path class="st1" d="M243.1,127.1h2.7l7.5,19.2l-2.6,0.6l-2.3-6.1h-8l-2.2,5.9h-2.7L243.1,127.1z M241.3,138.5h6.3l-3.1-8.3
			L241.3,138.5z"/>
      <path class="st1" d="M275.6,146.7l-10.7-15.2v15.2h-2.5v-19.5h2.4l10.4,14.6v-14.6h2.5v19.5L275.6,146.7L275.6,146.7z"/>
      <path class="st1" d="M296.2,139v7.8h-2.7V139l-6.9-11.4l2.7-0.6l5.6,9.5l5.5-9.3h2.9L296.2,139z"/>
    </g>
    <g>
      <polygon class="st1" points="36.8,3.5 62.3,11.6 73.3,0.6 197.9,40.2 0,40.2 		"/>
    </g>
    <g>
      <polygon class="st1" points="131.7,12.9 217.6,40.2 304.9,40.2 178.3,0 167.3,11 141.8,2.9 		"/>
    </g>
    <rect y="46.9" class="st1" width="305.1" height="3.7"/>
  </g>
</svg>
